<?xml version="1.0" standalone="no"?>
<!DOCTYPE svg PUBLIC "-//W3C//DTD SVG 20010904//EN"
 "http://www.w3.org/TR/2001/REC-SVG-20010904/DTD/svg10.dtd">
<svg version="1.0" xmlns="http://www.w3.org/2000/svg"
 width="340.000000pt" height="340.000000pt" viewBox="0 0 340.000000 340.000000"
 preserveAspectRatio="xMidYMid meet">
<metadata>
Created by potrace 1.11, written by Peter Selinger 2001-2013
</metadata>
<g transform="translate(0.000000,340.000000) scale(0.100000,-0.100000)"
fill="#000000" stroke="none">
<path d="M0 2438 c0 -530 4 -958 8 -953 4 6 18 11 32 13 28 3 166 67 190 87 8
8 17 13 20 12 10 -2 100 38 100 46 0 4 5 7 11 7 7 0 65 27 130 60 65 33 123
60 128 60 18 0 12 -40 -13 -83 -13 -23 -27 -51 -30 -63 -6 -18 -3 -20 26 -16
34 5 32 0 -16 -38 -16 -13 -19 -13 -14 0 3 9 -9 21 -31 32 -41 21 -41 21 -41
8 0 -5 11 -12 25 -16 24 -6 36 -34 14 -34 -5 0 -7 -5 -3 -12 4 -6 3 -8 -3 -5
-6 4 -16 0 -23 -8 -16 -19 -30 -19 -30 0 0 8 -5 15 -11 15 -7 0 -10 -12 -7
-30 3 -22 1 -30 -11 -30 -9 0 -25 -7 -35 -15 -11 -8 -25 -15 -30 -15 -6 0 -3
5 7 11 9 6 15 15 11 20 -8 14 -33 -22 -27 -38 3 -7 -2 -13 -11 -13 -9 0 -16
-5 -16 -11 0 -6 -7 -17 -15 -25 -13 -14 -18 -14 -44 -1 -26 13 -30 13 -36 -1
-3 -8 -1 -18 5 -22 11 -7 -22 -40 -62 -61 -20 -11 -21 -10 -11 2 10 12 8 17
-8 28 -28 17 -18 24 15 12 27 -11 56 -5 56 10 0 5 -6 9 -14 9 -7 0 -19 7 -26
15 -7 8 -18 15 -24 14 -25 -3 -33 2 -32 19 1 24 57 81 63 65 9 -25 23 -13 19
17 -2 16 2 31 8 33 6 2 8 7 5 11 -7 8 -121 -42 -131 -57 -4 -7 -5 -20 -2 -29
6 -21 1 -22 -28 -7 -16 8 -19 8 -13 -1 6 -9 -3 -10 -34 -5 l-41 7 0 -129 c1
-102 3 -125 13 -113 11 14 14 14 29 -2 17 -17 17 -18 -2 -30 -25 -16 -25 -25
-2 -32 10 -3 7 -4 -8 -3 -17 1 -26 -4 -28 -17 -3 -11 0 -16 7 -12 6 4 11 0 11
-9 0 -9 -4 -14 -9 -11 -4 3 -9 -28 -10 -69 -2 -67 0 -75 16 -74 10 0 13 3 6 6
-15 6 -17 23 -3 23 5 0 19 9 31 21 11 11 27 18 35 15 8 -3 12 -1 9 4 -3 5 6
12 20 16 28 7 28 7 16 52 -6 20 -6 32 0 32 5 0 9 -7 9 -16 0 -10 6 -14 14 -11
10 4 13 1 10 -7 -5 -14 25 -28 63 -29 12 -1 21 -3 18 -5 -8 -9 24 -32 38 -27
16 7 44 -22 32 -33 -4 -4 -10 -1 -12 6 -3 6 -9 10 -14 6 -12 -7 -11 -61 1 -69
6 -4 8 -10 5 -15 -11 -17 16 -50 58 -72 39 -20 57 -22 238 -23 107 -1 200 -5
207 -9 6 -4 21 -28 32 -53 18 -40 19 -50 8 -82 -14 -40 -27 -53 -43 -44 -5 3
2 -6 17 -19 15 -13 28 -31 30 -38 2 -8 9 -21 15 -28 7 -7 13 -26 13 -41 0 -22
5 -28 20 -27 11 0 20 -3 20 -9 1 -5 8 -21 17 -34 14 -22 14 -24 -2 -18 -9 4
-19 7 -21 7 -3 0 -2 5 1 10 3 6 1 10 -4 10 -6 0 -11 7 -11 15 0 11 -5 12 -26
5 -37 -15 -51 -12 -73 11 -19 20 -20 20 -47 2 -16 -10 -42 -30 -58 -46 -20
-18 -32 -24 -37 -16 -4 8 -8 8 -13 0 -5 -7 -12 -7 -25 1 -11 7 -26 8 -37 3
-11 -5 -23 -7 -28 -6 -4 1 -14 -4 -22 -10 -11 -9 -14 -8 -14 5 0 9 4 16 9 16
6 0 3 16 -5 35 -11 27 -11 35 -2 35 8 1 5 7 -6 15 -28 21 -36 10 -36 -46 0
-59 -18 -65 -46 -14 -12 22 -21 30 -26 23 -4 -7 -3 -17 2 -23 4 -5 11 -28 15
-50 l7 -40 -16 29 c-9 15 -13 32 -10 37 3 5 0 9 -5 9 -6 0 -11 5 -11 10 0 6
-9 20 -20 32 -17 18 -23 20 -45 10 -18 -8 -25 -8 -25 -1 0 6 -6 9 -14 6 -8 -3
-17 -1 -20 6 -2 7 -2 -4 1 -23 3 -19 12 -42 20 -52 9 -10 10 -18 5 -22 -6 -3
-12 0 -15 6 -4 10 -7 11 -18 0 -7 -6 -21 -12 -31 -12 -11 0 -29 -9 -41 -21
-14 -13 -17 -19 -7 -17 10 2 14 -3 12 -15 -2 -9 3 -17 11 -17 8 0 18 -7 21
-16 5 -14 4 -15 -8 -5 -9 7 -17 8 -20 2 -3 -5 0 -12 6 -14 7 -3 3 -6 -9 -6
-16 -1 -23 -7 -23 -21 0 -11 -6 -20 -12 -20 -7 0 -1 -11 14 -25 15 -14 32 -25
38 -25 6 0 9 -4 6 -9 -9 -13 25 -23 39 -11 7 6 15 6 22 -1 8 -8 13 -5 18 10 3
12 11 21 17 21 6 0 5 7 -3 17 -10 11 -10 14 -1 9 7 -4 12 -1 12 8 0 9 -8 16
-17 17 -12 0 -13 2 -5 6 10 4 10 8 1 19 -10 12 -8 13 14 5 21 -8 25 -7 20 4
-3 8 -12 15 -20 15 -8 0 -21 7 -29 15 -11 10 -12 15 -3 15 8 0 6 7 -6 20 -17
19 -17 20 1 27 10 4 19 2 22 -5 2 -7 11 -8 27 -2 20 7 22 6 18 -11 -4 -14 -11
-18 -22 -14 -14 5 -14 4 1 -11 16 -16 58 -27 58 -16 0 3 -8 14 -17 25 -13 15
-15 21 -5 24 6 3 10 9 6 14 -9 15 13 10 30 -7 14 -13 19 -26 18 -44 0 -11 28
-30 29 -20 1 5 3 15 4 20 1 6 3 15 4 20 0 6 5 10 11 10 6 0 6 -9 0 -25 -7 -18
-5 -28 6 -40 9 -8 19 -13 24 -10 5 3 10 0 12 -7 4 -10 10 -10 31 -1 20 9 27
20 27 39 0 15 3 24 8 20 7 -7 8 -11 11 -37 0 -5 7 -7 13 -3 11 6 11 4 1 -7
-19 -19 -16 -47 7 -59 15 -8 18 -15 11 -33 -6 -14 -5 -30 1 -41 5 -10 8 -26 5
-35 -2 -10 1 -18 8 -18 7 0 11 6 8 12 -2 7 6 15 17 18 12 3 19 10 15 16 -3 6
-3 11 2 12 31 3 49 10 59 23 6 9 19 16 29 16 11 0 15 5 12 14 -7 18 15 27 34
15 11 -7 11 -9 1 -9 -8 0 -10 -5 -6 -12 4 -7 4 -10 -1 -6 -9 8 -35 -9 -35 -23
0 -4 17 -11 37 -15 33 -6 35 -8 15 -15 -33 -12 -27 -30 25 -79 26 -25 45 -41
41 -37 -3 5 5 19 18 32 13 13 24 30 24 38 0 8 6 20 14 26 11 9 21 4 49 -24 20
-20 36 -38 36 -41 -1 -3 2 -8 5 -12 3 -3 6 0 6 7 0 7 4 10 10 6 5 -3 19 4 30
15 12 12 28 19 36 16 8 -3 20 3 26 14 7 11 20 20 28 21 10 0 8 3 -5 8 -11 5
-23 4 -26 -1 -3 -5 -9 -3 -12 6 -5 13 1 16 27 16 18 0 39 -7 46 -15 9 -10 9
-15 1 -15 -6 0 -11 -4 -11 -10 0 -5 13 -7 28 -4 18 4 34 1 43 -8 8 -8 26 -15
42 -15 15 -1 31 -1 37 -2 5 -1 16 -13 24 -28 14 -26 15 -27 16 -5 0 13 6 22
16 22 8 0 13 -4 10 -8 -3 -5 8 -6 25 -4 16 2 29 8 29 13 0 5 7 9 15 9 22 0 18
27 -5 40 -25 13 -26 27 -2 32 11 3 -1 13 -38 31 l-54 28 -17 -22 -17 -22 -16
31 c-16 31 -48 43 -61 22 -3 -5 -12 -7 -20 -3 -9 3 -21 0 -29 -6 -10 -9 -20
-9 -40 0 -18 9 -29 9 -39 1 -7 -6 -23 -9 -35 -5 -13 3 -22 1 -22 -6 0 -6 -7
-11 -15 -11 -8 0 -15 5 -15 11 0 6 -6 9 -12 6 -7 -2 -12 -11 -10 -20 2 -12 -2
-15 -13 -11 -11 5 -14 2 -9 -10 3 -9 1 -16 -5 -16 -6 0 -11 4 -11 10 0 5 -6 8
-12 6 -7 -1 -10 -1 -6 1 5 3 8 10 8 17 0 18 -51 8 -66 -12 -14 -19 -28 0 -19
27 5 16 11 18 35 11 27 -8 31 -6 36 16 3 13 11 21 16 18 10 -6 45 35 40 49 -2
7 13 11 35 8 15 -2 4 33 -24 76 l-18 28 35 -21 c19 -11 35 -28 35 -37 0 -9 6
-22 13 -29 6 -6 12 -18 12 -25 0 -17 15 -16 30 2 10 12 9 15 -6 15 -18 1 -18
1 -1 11 9 5 21 8 26 4 6 -3 6 6 1 22 -16 55 -30 84 -38 79 -4 -2 -8 4 -8 15 0
25 13 24 21 -1 5 -17 21 -25 46 -22 3 1 14 -24 25 -53 10 -30 22 -55 27 -55 5
0 6 8 2 18 -4 9 -10 40 -13 67 -2 28 -10 53 -16 58 -6 4 -1 6 11 4 24 -3 44
-17 25 -17 -7 0 -12 -8 -12 -17 0 -14 2 -15 9 -5 11 18 22 -24 17 -65 -2 -15
-1 -19 2 -8 l4 20 9 -20 c7 -14 8 -8 4 20 l-4 40 14 -35 14 -35 -3 52 c-3 51
-3 51 20 41 20 -9 24 -19 24 -55 0 -69 22 -48 46 42 11 43 26 81 32 83 7 2 12
-1 12 -8 0 -6 4 -8 10 -5 12 7 24 -39 16 -62 -9 -21 14 -121 28 -126 7 -3 10
12 9 42 -1 25 1 36 4 23 5 -27 27 -24 29 4 2 54 6 58 18 20 12 -38 11 -39 -28
-79 l-40 -40 27 -23 c30 -26 39 -24 106 17 24 16 57 31 75 35 17 3 33 9 36 13
12 14 50 31 50 21 0 -21 20 -9 21 13 0 12 3 16 6 10 2 -7 10 -13 18 -13 7 0
18 -7 25 -15 7 -8 18 -15 24 -14 7 0 6 2 -1 6 -7 2 -13 16 -13 29 0 16 -6 24
-17 24 -10 1 -29 7 -43 14 -24 14 -24 14 13 14 20 0 37 -4 37 -9 0 -5 4 -9 9
-9 5 0 4 11 -2 24 -7 13 -15 22 -19 20 -5 -3 -8 0 -8 5 0 14 17 14 25 1 11
-18 26 -10 20 10 -5 16 -2 20 18 20 16 0 26 7 30 20 5 20 7 20 42 5 48 -19 85
-20 85 0 0 20 44 20 64 -1 9 -8 16 -22 16 -30 0 -23 15 -16 27 14 l10 27 -3
-30 c-1 -16 -3 -34 -3 -39 -1 -4 -8 -6 -16 -2 -8 3 -14 2 -14 -2 4 -27 -4 -54
-23 -71 -21 -20 -44 -19 -32 1 5 7 1 9 -9 5 -8 -3 -17 0 -20 6 -3 7 -17 13
-31 15 l-27 2 21 -30 c12 -17 25 -28 30 -25 5 3 16 -5 24 -17 9 -12 16 -19 16
-14 0 5 7 3 15 -4 9 -7 18 -10 22 -6 3 3 0 6 -7 6 -7 0 -2 10 12 23 14 12 28
30 31 40 4 9 11 17 17 17 6 0 9 -4 6 -9 -3 -4 2 -16 12 -24 17 -15 18 -15 17
7 0 13 -9 33 -19 45 -17 18 -17 21 -3 21 19 0 57 -38 57 -56 0 -7 5 -16 12
-20 7 -5 8 -3 3 7 -6 10 -3 9 11 -2 31 -26 42 -30 50 -18 4 7 3 10 -2 7 -5 -3
-17 5 -27 18 -14 19 -15 24 -4 24 8 0 20 -7 27 -15 6 -8 15 -14 18 -13 4 0 15
0 26 -1 16 -1 15 -4 -7 -22 -30 -22 -31 -40 -4 -51 9 -4 17 -16 17 -26 0 -10
5 -23 10 -28 6 -6 13 -21 15 -34 7 -38 115 -134 131 -117 3 2 -4 21 -16 41
-11 21 -18 41 -15 47 4 5 -1 9 -9 9 -9 0 -16 4 -16 8 0 5 7 9 15 9 14 0 19
-10 16 -29 0 -5 4 -9 9 -9 6 -1 15 -3 20 -4 6 -1 22 -3 38 -4 l27 -1 -25 -20
c-20 -15 -23 -21 -12 -31 10 -11 12 -10 12 1 0 9 5 7 14 -5 8 -11 12 -23 10
-27 -9 -15 44 -8 56 7 13 16 5 33 -30 63 -13 11 -12 12 8 7 13 -4 30 -1 39 7
14 11 15 9 11 -19 -2 -18 -1 -30 3 -27 20 12 17 -17 -3 -30 l-22 -16 24 1 c47
1 64 14 66 48 2 31 0 33 -26 27 -24 -4 -28 -2 -26 18 1 20 4 22 19 15 13 -7
17 -6 17 5 0 18 -29 35 -47 29 -15 -5 -18 13 -4 21 5 3 11 15 14 26 3 11 2 18
-3 15 -12 -7 -27 17 -33 55 -3 19 -3 29 -1 23 4 -8 12 -10 22 -5 9 4 26 7 37
7 11 0 25 5 30 13 14 17 42 6 49 -20 6 -27 0 -38 -22 -38 -16 1 -16 1 0 11 15
8 16 13 5 29 -15 26 -27 26 -22 0 2 -11 0 -20 -6 -20 -16 0 -10 -22 9 -26 17
-5 42 -46 42 -70 0 -13 91 -11 112 2 6 4 14 0 19 -7 7 -12 9 -11 9 1 0 16 43
40 72 40 10 0 18 -6 18 -14 0 -8 4 -17 9 -20 14 -9 41 5 41 21 0 8 4 12 9 8 5
-3 24 3 43 14 28 16 96 43 146 57 7 2 10 9 7 14 -5 8 -11 8 -20 0 -21 -17 -55
-21 -49 -5 3 7 14 11 24 8 15 -4 18 -1 13 16 -4 14 -13 21 -30 21 -13 0 -22 4
-18 9 3 5 -13 20 -34 32 -22 12 -45 34 -51 48 -6 15 -35 51 -65 80 -30 29 -55
57 -55 62 0 11 -93 9 -112 -2 -14 -9 -56 35 -64 68 -6 22 -25 26 -51 10 -16
-10 -20 1 -18 46 2 36 -7 48 -20 27 -11 -18 -45 -11 -45 8 0 17 -8 15 -72 -17
-69 -34 -108 -42 -108 -20 0 5 -5 9 -11 9 -8 0 -10 -15 -5 -47 4 -34 3 -44 -5
-36 -5 5 -10 26 -9 44 0 19 1 44 1 57 1 24 15 30 22 10 2 -7 2 -2 -1 12 -3 14
-4 33 -4 43 1 18 -23 24 -33 7 -4 -6 -10 -8 -14 -6 -4 3 -20 -6 -37 -19 -26
-22 -27 -24 -8 -25 12 0 21 -7 21 -15 0 -18 -24 -20 -29 -3 -6 18 -63 -14 -62
-35 2 -25 -11 -21 -30 8 -16 25 -16 25 6 20 17 -4 30 1 49 22 14 15 29 36 32
46 5 14 0 17 -26 17 -18 0 -38 5 -43 10 -14 14 -76 31 -69 19 4 -5 2 -9 -4 -9
-5 0 -18 -3 -28 -6 -14 -4 -15 -4 -4 4 14 10 6 36 -9 27 -5 -3 -12 9 -15 27
-13 59 -68 128 -102 128 -31 0 -53 -22 -47 -48 4 -12 10 -22 14 -22 4 0 10 -9
13 -20 3 -11 11 -19 19 -18 16 4 18 -24 1 -29 -6 -2 -19 10 -29 26 -20 34 -64
42 -89 17 -12 -11 -9 -18 16 -42 16 -15 29 -22 29 -16 0 15 39 9 50 -8 4 -7
15 -10 24 -7 13 5 16 0 13 -26 -2 -26 1 -31 16 -29 12 2 19 -6 23 -28 4 -17
11 -33 15 -36 5 -3 7 -10 3 -15 -9 -14 -24 0 -24 23 0 15 -4 18 -16 14 -14 -5
-15 -4 -4 9 10 12 10 15 -4 15 -9 0 -21 9 -28 20 -16 25 -33 26 -24 3 7 -17 6
-17 -11 -1 -13 14 -15 21 -5 30 16 16 15 28 -4 28 -8 0 -12 -4 -9 -10 9 -14
-26 -12 -54 4 -25 14 -55 11 -46 -4 3 -5 0 -12 -6 -16 -7 -4 -9 -3 -6 2 3 6 2
16 -3 23 -6 11 -15 11 -39 3 -26 -9 -33 -9 -38 3 -3 8 -14 15 -25 15 -10 0
-17 4 -14 8 3 5 -13 16 -35 26 -21 10 -37 22 -34 27 4 5 -2 10 -12 10 -10 1
-22 2 -28 4 -5 1 -20 3 -31 3 -13 1 -24 11 -27 23 -5 17 -9 19 -26 9 -18 -9
-19 -14 -10 -31 6 -12 8 -23 5 -26 -3 -4 0 -13 7 -21 10 -13 8 -14 -11 -8 -14
5 -22 3 -22 -4 0 -6 -5 -8 -10 -5 -6 4 -8 11 -5 16 4 5 3 14 -1 21 -5 8 -9 6
-14 -6 -3 -10 -10 -18 -15 -18 -6 0 -21 -9 -34 -19 -30 -24 -45 -24 -32 0 6
10 7 21 4 25 -3 3 -1 6 5 6 7 0 12 8 12 18 0 15 -2 15 -10 2 -8 -11 -10 6 -9
60 0 41 -4 102 -10 135 -13 72 -13 99 -1 70 7 -17 9 -17 9 -2 1 9 5 17 10 17
12 0 11 -54 -2 -62 -6 -4 -9 -10 -5 -13 12 -12 35 24 31 48 -5 23 -3 24 52 22
31 -1 61 -7 68 -14 6 -6 19 -11 29 -11 21 0 52 -55 41 -73 -4 -7 0 -6 11 2 9
8 15 20 12 26 -2 7 0 18 5 26 7 11 9 11 9 -3 0 -9 6 -20 13 -24 6 -4 9 -4 5 1
-4 4 -3 17 3 27 8 15 14 17 22 9 9 -9 8 -14 -3 -21 -14 -9 -7 -14 13 -11 4 0
7 -3 7 -9 0 -5 -7 -10 -15 -10 -8 0 -15 -4 -15 -10 0 -5 -7 -10 -15 -10 -8 0
-15 -4 -15 -10 0 -5 9 -10 20 -10 25 0 27 -20 3 -21 -13 0 -12 -3 5 -10 25
-10 46 -3 37 11 -10 17 7 60 24 60 14 0 14 -2 1 -10 -13 -8 -12 -10 3 -10 10
0 15 -4 12 -10 -3 -5 0 -7 8 -4 8 3 18 1 22 -5 9 -16 45 -13 45 3 0 17 18 31
28 21 3 -3 0 -10 -8 -15 -12 -8 -9 -10 11 -10 14 0 34 -9 44 -20 10 -11 23
-20 28 -20 5 0 15 -7 22 -16 11 -15 12 -15 12 2 0 26 -27 51 -64 59 -18 3 -32
10 -31 13 2 10 -19 54 -34 72 -7 9 -32 22 -55 29 -37 12 -41 16 -32 33 10 19
10 19 -15 2 -15 -9 -31 -24 -36 -33 -7 -13 -11 -14 -21 -3 -11 10 -10 12 3 12
9 0 20 5 24 11 5 9 -1 10 -19 5 -20 -5 -25 -3 -21 8 3 8 1 17 -5 21 -16 9 -13
25 5 25 8 0 12 -4 9 -10 -9 -14 8 -13 23 2 9 9 12 8 13 -7 0 -11 3 -15 5 -8 3
7 13 10 22 7 9 -3 1 3 -18 13 -19 10 -36 21 -38 25 -2 4 -10 4 -19 1 -9 -4
-14 -2 -10 3 3 6 1 16 -4 24 -8 12 -12 12 -16 3 -2 -7 -9 -13 -15 -13 -5 0
-16 -6 -23 -12 -33 -30 -43 -36 -78 -47 -20 -7 -39 -16 -42 -21 -9 -15 -34 0
-28 17 3 8 0 19 -7 23 -9 6 -7 10 9 15 18 5 19 10 10 27 -6 11 -8 33 -5 49 5
25 3 27 -8 17 -8 -7 -12 -15 -10 -17 2 -2 -3 -13 -13 -23 -9 -10 -13 -18 -9
-18 4 0 0 -7 -9 -16 -9 -9 -19 -13 -23 -10 -3 4 -2 10 4 14 6 4 10 20 10 37
-1 25 -7 32 -36 42 -31 11 -32 12 -9 12 14 1 26 7 26 14 0 9 -9 12 -22 9 -13
-2 -26 1 -29 7 -5 7 4 14 23 17 26 6 28 8 16 21 -8 8 -15 19 -15 24 0 5 -15 0
-32 -11 -38 -23 -62 -26 -34 -5 11 8 21 22 22 30 2 13 -5 15 -36 10 -21 -3
-41 -2 -44 3 -3 6 -27 13 -53 17 -27 4 -42 10 -35 12 20 7 14 21 -10 25 -13 2
-22 9 -21 15 2 7 -4 10 -12 7 -8 -4 -15 -11 -15 -16 0 -6 -9 -8 -19 -5 -13 3
-18 0 -15 -8 3 -7 0 -16 -7 -21 -8 -4 -10 -3 -5 4 5 8 -1 12 -15 12 -18 0 -20
2 -9 15 7 9 20 15 29 14 31 -3 41 1 41 16 0 8 -3 14 -7 14 -19 -3 -34 2 -29
10 3 4 -6 13 -19 19 -15 7 -25 8 -25 2 0 -6 -5 -10 -10 -10 -6 0 -8 11 -6 25
4 22 2 24 -14 15 -27 -15 -83 -12 -106 5 -10 8 -39 15 -63 15 -35 0 -42 -3
-37 -16 3 -9 2 -12 -5 -9 -6 4 -17 -1 -24 -11 -8 -11 -15 -15 -15 -10 0 5 -7
3 -15 -4 -10 -9 -15 -9 -15 -1 0 6 4 11 10 11 11 0 9 28 -3 47 -4 6 -3 14 3
18 21 13 10 35 -17 36 -25 0 -23 2 17 21 34 15 58 18 100 15 48 -5 83 -11 100
-17 3 -1 8 -2 13 -1 4 0 7 -3 7 -8 0 -5 7 -12 16 -15 8 -3 13 -2 11 2 -3 4 4
16 15 27 19 20 19 20 12 0 -7 -19 -7 -19 13 -2 16 14 20 14 20 2 0 -8 -3 -13
-6 -11 -3 2 -14 -5 -24 -14 -18 -17 -16 -19 49 -54 37 -20 102 -50 143 -67 42
-17 100 -44 129 -61 28 -16 52 -26 52 -21 0 4 5 0 11 -9 10 -19 49 -25 49 -9
0 5 10 13 22 17 16 5 28 -1 50 -26 21 -25 28 -28 28 -15 0 19 2 18 148 -11 42
-8 41 -32 -1 -25 -13 2 -77 -22 -77 -29 0 -10 95 -60 113 -60 8 0 33 -20 55
-45 22 -25 48 -45 60 -45 11 0 47 -18 81 -41 44 -30 67 -39 83 -34 13 4 18 3
11 -2 -8 -6 0 -16 24 -31 19 -13 33 -20 30 -15 -3 5 8 7 26 5 25 -4 28 -6 13
-12 -17 -6 -17 -7 5 -21 31 -20 79 -37 104 -38 11 0 32 -1 48 -2 15 0 27 -5
27 -10 0 -5 7 -9 15 -9 9 0 12 6 9 17 -3 10 2 6 11 -9 24 -42 46 -38 24 4 -10
18 -9 20 7 14 35 -14 63 -14 57 0 -3 8 -18 14 -35 14 -17 0 -27 4 -23 10 3 6
-3 23 -15 38 -19 24 -20 27 -5 30 13 3 9 12 -19 47 -55 67 -43 65 28 -5 36
-35 63 -67 60 -71 -8 -14 46 -42 82 -43 42 -1 46 -16 4 -16 -35 0 -42 -25 -10
-35 11 -4 18 -11 15 -16 -3 -5 1 -6 9 -3 9 3 13 10 10 15 -3 5 2 6 11 3 14 -6
14 -8 -1 -18 -15 -11 -14 -15 11 -34 38 -30 49 -28 28 5 -17 28 -17 28 2 11
11 -9 33 -21 49 -27 22 -9 26 -14 17 -25 -9 -11 -3 -13 34 -12 38 0 45 4 45
21 0 12 -4 25 -9 31 -6 5 1 9 19 10 16 1 27 -3 24 -7 -3 -5 0 -9 5 -9 14 0 14
6 1 31 -6 10 -15 19 -21 19 -6 0 -7 -6 -3 -12 4 -7 -2 -5 -13 5 -11 9 -23 14
-26 10 -4 -3 -7 -1 -7 5 0 7 7 12 17 12 15 0 15 1 0 18 -22 24 -22 39 0 21 9
-8 24 -13 33 -11 10 2 20 -4 23 -13 4 -8 2 -15 -2 -15 -5 0 -11 6 -14 13 -2 6
-8 9 -12 5 -11 -10 25 -49 37 -42 5 3 8 -2 6 -12 -2 -12 2 -18 11 -16 12 3 12
1 1 -13 -12 -15 -12 -17 5 -15 35 4 44 0 50 -20 4 -11 15 -20 27 -20 14 0 18
-5 14 -16 -5 -13 -2 -15 13 -11 11 3 28 -2 38 -10 16 -13 15 -14 -16 -9 -29 5
-32 4 -21 -9 7 -8 19 -15 26 -15 8 0 14 -7 14 -15 0 -8 5 -15 10 -15 6 0 10
-7 10 -15 0 -8 4 -15 10 -15 5 0 9 -3 9 -7 -4 -23 3 -31 22 -26 11 3 17 9 12
12 -4 3 -15 15 -23 25 -14 18 -13 19 3 13 11 -4 20 -1 23 8 10 25 21 17 19
-12 -3 -50 -5 -53 -25 -53 -11 0 -20 -5 -20 -10 0 -6 13 -9 29 -8 16 1 27 6
25 10 -11 17 28 19 46 3 18 -16 20 -16 20 -2 0 9 8 21 18 26 9 6 11 11 5 11
-7 0 -22 9 -33 20 -11 11 -20 16 -20 10 0 -5 -7 -7 -17 -3 -14 5 -13 8 6 15
17 6 21 13 16 30 -5 17 -4 19 3 9 7 -10 21 -12 53 -7 40 6 42 6 24 -8 -19 -14
-15 -31 8 -31 7 -1 11 -7 9 -14 -1 -7 2 -10 8 -6 5 3 18 1 27 -5 17 -11 17
-11 0 -6 -15 5 -16 2 -7 -14 6 -11 18 -20 28 -21 14 0 14 -2 -3 -9 -20 -8 -18
-9 23 -14 7 0 17 -8 22 -16 6 -10 10 -11 10 -2 0 6 5 12 11 12 5 0 8 -3 6 -7
-3 -5 1 -14 9 -20 8 -8 15 -9 19 -3 3 6 16 10 27 10 21 0 20 -1 -3 -20 -22
-20 -22 -22 -7 -48 9 -15 24 -28 32 -30 14 -3 16 9 14 85 -3 73 -6 88 -18 86
-22 -4 -53 50 -38 65 9 9 9 12 -2 13 -8 1 -22 2 -30 3 -10 1 -16 14 -18 36 -3
31 0 35 23 36 l26 2 -21 -18 c-12 -10 -17 -21 -11 -24 5 -3 11 0 14 6 3 10 9
9 23 -3 10 -9 25 -14 32 -12 7 3 10 -1 6 -10 -3 -8 -1 -18 5 -22 15 -8 14 37
0 69 -8 16 -17 23 -28 19 -13 -4 -13 -3 -2 5 12 9 9 17 -18 47 -22 25 -30 43
-26 56 5 14 2 17 -8 13 -10 -3 -16 4 -20 26 -7 33 -54 87 -72 82 -6 -2 -6 1 1
8 6 6 22 8 38 4 23 -5 30 -14 28 -35 -1 -3 12 -19 28 -34 17 -16 30 -24 30
-17 0 6 -8 16 -17 21 -10 6 -13 10 -8 10 16 0 49 -28 42 -35 -7 -7 21 -33 36
-34 4 0 7 11 7 25 0 17 -6 25 -17 25 -17 1 -17 1 0 11 10 6 17 22 17 40 0 25
-4 29 -22 28 -37 -3 -58 0 -58 10 0 13 46 19 64 9 14 -8 16 -1 16 51 0 53 -2
59 -19 54 -11 -3 -18 -10 -15 -17 2 -6 -10 -19 -28 -28 -45 -23 -78 -31 -78
-20 0 6 12 13 28 17 15 4 22 9 15 12 -13 5 -74 -24 -85 -41 -4 -6 -8 1 -8 17
0 17 5 27 14 27 8 0 17 4 20 8 3 5 -5 8 -17 8 -15 -1 -21 4 -19 15 1 10 -6 19
-19 22 -11 3 -18 10 -14 16 3 6 0 9 -8 5 -10 -3 -20 6 -28 25 -10 22 -21 31
-39 32 -24 1 -24 1 4 11 25 9 31 8 42 -8 25 -36 34 -43 49 -38 8 4 15 1 15 -5
0 -6 8 -11 18 -11 13 0 14 2 4 9 -10 6 -9 10 7 14 12 3 19 1 15 -4 -3 -6 0
-16 6 -24 14 -17 45 -21 35 -5 -3 6 3 10 14 10 28 0 52 -11 45 -21 -3 -5 6 -9
20 -9 l25 0 0 130 c-1 100 -4 130 -14 130 -19 0 -26 -27 -10 -40 16 -13 10
-34 -6 -24 -5 3 -6 10 -3 16 4 6 1 9 -7 6 -8 -3 -29 1 -46 9 -18 7 -33 11 -33
8 0 -3 11 -10 25 -15 14 -5 25 -14 25 -20 0 -18 -55 -11 -73 10 -9 11 -12 20
-6 20 7 0 8 7 4 18 -4 9 -7 31 -6 48 1 17 -5 37 -13 43 -13 11 -13 15 1 30 9
11 23 16 34 14 10 -3 35 -2 56 2 28 5 33 9 22 17 -11 8 -11 9 3 4 42 -13 48 1
48 104 0 55 -4 102 -10 105 -5 3 -10 11 -10 16 0 6 5 7 10 4 6 -4 10 5 10 19
0 26 -23 36 -35 16 -7 -12 -16 -12 -34 -1 -10 7 -11 13 -1 31 11 20 13 20 29
6 10 -9 23 -16 29 -16 9 0 12 158 12 640 l0 640 -1700 0 -1700 0 0 -962z
m2512 158 c110 -36 179 -68 198 -91 7 -8 27 -17 46 -21 19 -3 37 -10 40 -15 3
-5 14 -9 25 -9 20 0 26 -15 9 -25 -5 -3 -19 3 -31 13 -11 11 -33 22 -47 24
-23 3 -27 0 -27 -19 0 -17 6 -23 22 -23 12 0 24 -4 27 -8 2 -4 -22 -5 -55 -2
-36 4 -64 12 -69 20 -12 20 -7 22 24 10 15 -5 32 -8 37 -4 14 8 -1 26 -17 20
-7 -3 -16 -1 -20 5 -3 6 -16 9 -27 8 -24 -3 -72 19 -63 28 3 3 11 1 18 -4 9
-7 23 -6 43 3 26 11 28 13 11 20 -11 4 -21 2 -27 -7 -7 -12 -13 -11 -38 4 -28
16 -81 24 -81 11 0 -4 8 -13 18 -21 16 -14 16 -14 0 -9 -34 10 -18 -4 21 -20
21 -8 41 -24 44 -34 6 -24 -18 -16 -51 16 -13 13 -37 29 -53 36 -29 13 -39 28
-17 28 6 0 3 9 -8 21 -12 13 -25 18 -40 15 -18 -5 -24 0 -32 23 -18 51 -15 51
120 7z m435 -151 c23 -14 43 -28 43 -30 0 -12 -67 9 -81 26 -10 11 -25 16 -40
13 -22 -4 -22 -3 -4 5 30 14 34 13 82 -14z m-312 -15 c3 -5 1 -10 -4 -10 -6 0
-11 5 -11 10 0 6 2 10 4 10 3 0 8 -4 11 -10z m-55 -42 c0 -3 -9 -4 -20 -1 -11
3 -20 2 -20 -2 0 -9 28 -36 37 -35 4 1 9 -3 11 -9 5 -16 -14 -13 -28 4 -7 8
-19 15 -27 15 -11 0 -14 7 -10 21 3 12 0 22 -9 26 -8 3 -14 9 -14 13 0 5 18 1
40 -8 22 -9 40 -20 40 -24z m-151 -18 c2 -10 -38 -9 -44 1 -4 5 -13 5 -25 -1
-13 -7 -19 -6 -23 4 -7 17 27 28 41 14 5 -5 14 -3 22 8 13 15 15 14 21 -3 4
-10 8 -20 8 -23z m28 34 c-3 -3 -12 -4 -19 -1 -8 3 -5 6 6 6 11 1 17 -2 13 -5z
m27 -29 c19 -14 19 -15 -6 -15 -14 0 -31 7 -38 15 -10 12 -9 15 6 15 11 0 28
-7 38 -15z m219 -2 c-7 -2 -19 -2 -25 0 -7 3 -2 5 12 5 14 0 19 -2 13 -5z
m313 -16 c5 -1 8 -6 6 -10 -1 -4 7 -3 19 3 17 10 24 8 41 -10 12 -13 27 -19
37 -16 10 4 7 -2 -7 -14 -18 -15 -28 -17 -42 -10 -10 6 -27 10 -37 10 -10 0
-31 12 -48 26 -16 14 -25 23 -19 20 7 -3 15 2 18 11 6 14 9 15 15 4 5 -7 12
-13 17 -14z m-681 -18 c-10 -15 -25 -10 -19 6 4 8 10 12 15 9 5 -3 7 -10 4
-15z m295 11 c0 -5 -7 -10 -16 -10 -8 0 -12 5 -9 10 3 6 10 10 16 10 5 0 9 -4
9 -10z m120 -11 c0 -5 -5 -9 -11 -9 -5 0 -8 -4 -4 -9 10 -17 -12 -21 -25 -6
-7 9 -21 13 -31 10 -15 -5 -17 -2 -13 10 4 10 14 15 25 12 11 -3 21 -1 24 4 7
10 35 1 35 -12z m120 1 c0 -5 -7 -7 -15 -4 -8 4 -15 8 -15 10 0 2 7 4 15 4 8
0 15 -4 15 -10z m-500 -20 c22 -12 16 -42 -7 -33 -12 5 -12 7 -1 15 9 7 2 8
-19 4 -34 -6 -47 9 -15 17 9 3 18 5 20 6 2 0 12 -4 22 -9z m110 -5 c-12 -15
49 -17 68 -2 8 7 12 5 12 -7 0 -12 5 -14 24 -6 13 5 33 6 44 3 11 -2 29 0 40
6 16 9 27 4 63 -27 24 -21 54 -39 66 -39 12 -1 33 -11 45 -23 13 -12 30 -19
40 -17 9 3 33 -5 53 -17 l37 -23 -53 -1 c-28 0 -56 -5 -62 -11 -6 -6 -15 -5
-24 5 -17 16 -33 18 -33 4 0 -5 4 -10 9 -10 5 0 11 -7 15 -15 4 -12 0 -14 -22
-10 -26 5 -26 5 -3 -5 14 -6 28 -7 35 -1 6 5 21 5 32 1 25 -10 41 -30 25 -31
-47 -4 -70 0 -94 15 -20 13 -31 15 -40 8 -8 -7 -18 -7 -27 -2 -30 19 -34 9 -5
-10 20 -13 31 -16 36 -8 5 7 13 6 28 -4 29 -21 19 -26 -36 -18 -25 4 -56 5
-67 2 -18 -5 -19 -3 -8 10 11 14 10 16 -9 11 -19 -5 -21 -3 -17 15 4 15 2 22
-8 22 -7 0 -11 -6 -8 -14 3 -8 1 -17 -4 -20 -5 -3 -9 2 -8 12 1 14 -7 17 -42
16 -23 0 -38 3 -32 6 6 4 2 14 -10 25 -12 11 -28 33 -36 51 -8 18 -25 35 -37
39 -20 7 -18 8 13 15 41 9 38 12 -11 15 -46 3 -69 11 -69 25 0 6 4 9 9 5 6 -3
16 1 23 9 15 18 62 18 48 1z m-60 -67 c0 -6 -7 -5 -15 2 -8 7 -15 17 -15 22 0
6 7 5 15 -2 8 -7 15 -17 15 -22z m743 18 c19 -15 24 -31 5 -20 -15 9 -80 14
-91 7 -5 -3 -3 -9 4 -14 10 -6 7 -9 -11 -9 -29 0 -58 16 -47 26 3 4 26 9 49
11 24 3 45 6 47 9 8 8 26 4 44 -10z m-693 -80 c0 -5 -7 -1 -15 10 -8 10 -14
24 -14 29 0 6 6 1 14 -9 8 -11 15 -24 15 -30z m548 27 c-14 -17 -35 -16 -41 2
-5 10 1 14 23 12 21 -1 26 -5 18 -14z m95 -20 c-7 -2 -19 -2 -25 0 -7 3 -2 5
12 5 14 0 19 -2 13 -5z m-73 -23 c0 -5 -2 -10 -4 -10 -3 0 -8 5 -11 10 -3 6
-1 10 4 10 6 0 11 -4 11 -10z m-580 -34 c-7 -7 -13 -7 -20 0 -6 6 -3 10 10 10
13 0 16 -4 10 -10z m857 8 c-3 -3 -12 -4 -19 -1 -8 3 -5 6 6 6 11 1 17 -2 13
-5z m-387 -31 c0 -7 -4 -13 -9 -13 -5 0 -13 6 -19 13 -8 10 -6 13 9 13 10 0
19 -6 19 -13z m187 11 c-3 -3 -12 -4 -19 -1 -8 3 -5 6 6 6 11 1 17 -2 13 -5z
m-530 -30 c-3 -3 -12 -4 -19 -1 -8 3 -5 6 6 6 11 1 17 -2 13 -5z m617 -9 c3
-8 1 -15 -4 -15 -6 0 -10 7 -10 15 0 8 2 15 4 15 2 0 6 -7 10 -15z m-74 -19
c0 -9 -39 -13 -51 -5 -10 6 -4 9 19 9 17 0 32 -2 32 -4z m-1607 -13 c-7 -2
-19 -2 -25 0 -7 3 -2 5 12 5 14 0 19 -2 13 -5z m1172 -23 c19 -8 19 -9 -2 -9
-12 -1 -25 4 -28 9 -7 12 2 12 30 0z m-700 -20 c3 -5 -1 -10 -9 -10 -8 0 -18
-9 -21 -20 -3 -11 -10 -20 -15 -20 -5 0 -15 -3 -24 -6 -27 -10 -18 23 12 45
30 23 48 26 57 11z m1193 -3 c8 -9 3 -12 -24 -13 -40 -1 -43 3 -11 16 12 5 23
9 23 9 1 1 6 -5 12 -12z m-648 -46 c16 -15 12 -14 -33 9 -18 9 -23 16 -15 21
6 4 17 2 22 -4 6 -7 18 -18 26 -26z m380 19 c0 -5 -2 -10 -4 -10 -3 0 -8 5
-11 10 -3 6 -1 10 4 10 6 0 11 -4 11 -10z m-976 -61 c-3 -5 -10 -7 -15 -3 -5
3 -7 10 -3 15 3 5 10 7 15 3 5 -3 7 -10 3 -15z m1326 11 c12 -8 11 -10 -7 -10
-12 0 -25 -4 -28 -10 -3 -5 -10 -10 -16 -10 -9 0 21 38 31 39 3 0 12 -4 20 -9z
m-635 -10 c-3 -6 1 -7 9 -4 9 3 16 2 16 -3 0 -15 -11 -22 -26 -16 -16 6 -19
33 -3 33 5 0 7 -4 4 -10z m559 -56 c5 -12 2 -15 -10 -10 -8 3 -18 6 -20 6 -3
0 -2 5 1 10 9 15 22 12 29 -6z m-2110 -26 c-3 -4 -9 -8 -15 -8 -5 0 -9 4 -9 8
0 5 7 9 15 9 8 0 12 -4 9 -9z m1782 -15 c-7 -7 -26 7 -26 19 0 6 6 6 15 -2 9
-7 13 -15 11 -17z m-126 -2 c0 -12 -30 -22 -43 -14 -7 4 -3 9 9 14 26 10 34
10 34 0z m-803 -30 c1 -11 -5 -22 -13 -25 -10 -4 -13 -2 -7 7 4 6 8 15 9 20 5
24 9 23 11 -2z m966 5 c17 -13 16 -14 -7 -12 -15 0 -26 7 -26 14 0 15 10 15
33 -2z m-253 -40 c0 -3 -7 -3 -15 0 -8 4 -15 13 -15 21 0 12 2 12 15 -1 8 -8
15 -17 15 -20z m255 -6 c3 -5 -3 -10 -14 -10 -12 0 -21 5 -21 10 0 6 6 10 14
10 8 0 18 -4 21 -10z m330 -29 c-12 -20 -42 -31 -42 -16 0 7 6 11 14 8 7 -3
16 2 19 11 4 9 9 15 11 12 3 -3 2 -9 -2 -15z m-655 -1 c0 -5 -2 -10 -4 -10 -3
0 -8 5 -11 10 -3 6 -1 10 4 10 6 0 11 -4 11 -10z m344 -26 c3 -8 2 -12 -4 -9
-6 3 -10 10 -10 16 0 14 7 11 14 -7z m-881 -60 c-7 -19 -8 -18 -27 11 -16 24
-16 25 8 14 14 -7 22 -17 19 -25z m-48 6 c-3 -5 -12 -7 -20 -3 -21 7 -19 13 6
13 11 0 18 -4 14 -10z m1210 -1 c4 -6 13 -8 21 -5 8 3 14 1 14 -4 0 -6 -5 -10
-11 -10 -5 0 -7 -4 -4 -10 4 -6 -7 -10 -25 -10 -29 0 -105 -28 -97 -36 4 -4
130 14 152 22 12 5 16 4 12 -3 -8 -13 -54 -23 -131 -29 -50 -4 -58 -2 -53 11
6 13 -4 20 -25 16 -5 0 -8 6 -8 15 0 9 6 14 13 11 8 -3 31 5 53 18 43 25 79
31 89 14z m-2309 -21 c-10 -6 -20 -7 -24 -3 -9 8 20 25 31 18 5 -3 2 -10 -7
-15z m-56 -6 c-8 -3 -22 -10 -30 -16 -8 -6 -7 -1 4 11 10 13 23 20 29 16 7 -4
6 -8 -3 -11z m320 -37 c0 -14 -4 -25 -8 -25 -4 0 -9 11 -10 25 -1 14 3 25 8
25 6 0 10 -11 10 -25z m2150 15 c0 -5 -4 -10 -9 -10 -6 0 -13 5 -16 10 -3 6 1
10 9 10 9 0 16 -4 16 -10z m-3150 -10 c-8 -5 -19 -10 -25 -10 -5 0 -3 5 5 10
8 5 20 10 25 10 6 0 3 -5 -5 -10z m940 -15 c0 -1 -11 -12 -25 -25 l-25 -23 12
25 c7 13 18 25 25 25 7 0 13 -1 13 -2z m-277 -25 c3 -11 2 -22 -2 -24 -4 -3
-8 6 -9 20 -2 29 4 31 11 4z m2492 10 c3 -5 -2 -10 -11 -10 -10 0 -25 -7 -35
-16 -10 -9 -23 -13 -29 -9 -7 4 2 14 22 25 39 22 45 23 53 10z m-2531 -25 c-9
-27 -11 -28 -30 -21 -12 5 -14 9 -5 20 6 7 8 16 5 19 -4 3 3 5 15 4 16 -1 20
-6 15 -22z m-81 -48 c-17 -18 -17 -20 5 -37 21 -18 31 -37 13 -26 -5 4 -12 0
-14 -6 -3 -7 -6 -3 -6 10 -1 12 -7 22 -14 22 -18 0 -19 37 0 44 13 6 13 9 -2
34 l-18 27 27 -24 c25 -23 25 -25 9 -44z m-663 49 c0 -2 -7 -7 -16 -10 -8 -3
-12 -2 -9 4 6 10 25 14 25 6z m841 -24 c-8 -3 -6 -8 5 -16 13 -10 14 -15 4
-21 -9 -6 -11 -4 -5 5 6 10 3 12 -12 8 -12 -3 -27 -2 -34 3 -12 7 -12 9 0 9 8
0 11 6 7 16 -3 8 -2 12 4 9 6 -3 10 -1 10 6 0 8 5 8 16 -2 11 -9 12 -15 5 -17z
m2319 18 c0 -5 -10 -10 -22 -10 -19 0 -20 2 -8 10 19 13 30 13 30 0z m125 -8
c14 -10 17 -32 5 -32 -5 0 -10 4 -10 9 0 4 -12 6 -27 4 -27 -4 -27 -4 -9 11
22 18 27 19 41 8z m-2275 -31 c-6 -12 -8 -26 -5 -31 3 -5 -1 -7 -9 -4 -15 6
-12 27 7 52 15 19 20 7 7 -17z m39 -16 c-18 -25 -34 -45 -36 -45 -6 0 7 22 25
42 7 9 11 21 8 27 -6 8 7 18 27 20 5 1 -6 -19 -24 -44z m86 25 c-3 -5 -12 -10
-18 -10 -7 0 -6 4 3 10 19 12 23 12 15 0z m100 0 c3 -6 -1 -7 -9 -4 -9 3 -16
1 -16 -5 0 -6 -5 -11 -11 -11 -8 0 -8 5 1 15 14 17 26 19 35 5z m1682 4 c-3
-3 -12 -4 -19 -1 -8 3 -5 6 6 6 11 1 17 -2 13 -5z m107 -15 c-2 -5 -11 -6 -20
-2 -9 3 -14 0 -12 -7 2 -7 -3 -15 -9 -17 -8 -3 -13 3 -13 14 0 15 7 19 29 19
17 0 28 -3 25 -7z m-67 -31 c-3 -8 -6 -5 -6 6 -1 11 2 17 5 13 3 -3 4 -12 1
-19z m-843 -17 c-2 -3 -12 3 -22 13 -16 17 -16 18 5 5 12 -7 20 -15 17 -18z
m-993 -11 c17 0 9 -18 -11 -23 -14 -3 -20 -14 -21 -34 -1 -19 -3 -22 -6 -9 -3
11 1 38 8 60 9 25 15 34 17 23 2 -9 8 -17 13 -17z m-1071 10 c0 -5 -5 -10 -11
-10 -5 0 -7 5 -4 10 3 6 8 10 11 10 2 0 4 -4 4 -10z m916 -44 c-11 -12 -29
-30 -39 -41 -18 -20 -18 -20 -8 1 5 11 17 26 25 34 9 7 16 24 16 38 0 24 1 25
14 7 12 -16 11 -21 -8 -39z m107 38 c-5 -13 -7 -13 -14 -2 -5 7 -9 8 -9 3 0
-6 5 -16 12 -23 9 -9 9 -12 0 -12 -15 0 -15 -22 0 -55 8 -18 14 -22 20 -13 5
9 8 6 8 -9 0 -12 -5 -25 -12 -29 -8 -5 -5 -11 7 -20 10 -8 16 -17 12 -20 -9
-9 -56 29 -57 46 -1 10 -3 11 -7 3 -2 -7 -12 -13 -20 -13 -10 0 -13 6 -9 16 5
12 2 15 -10 10 -11 -4 -24 1 -36 14 -18 20 -18 20 1 20 11 0 23 5 26 10 4 6
11 8 16 4 5 -3 6 -10 3 -16 -4 -7 -2 -8 4 -4 7 4 9 19 5 36 -4 23 0 34 18 50
29 24 51 26 42 4z m2005 -19 c0 -14 -5 -22 -10 -19 -5 3 -7 13 -4 21 5 13 2
13 -20 -2 -25 -16 -26 -10 -2 22 14 18 36 5 36 -22z m-2441 3 c-3 -8 -6 -5 -6
6 -1 11 2 17 5 13 3 -3 4 -12 1 -19z m543 12 c0 -5 -10 -10 -22 -9 -22 0 -22
1 -3 9 11 5 21 9 23 9 1 1 2 -3 2 -9z m186 -3 c4 -4 0 -7 -9 -7 -10 0 -14 -5
-11 -14 6 -15 -11 -16 -32 -3 -7 4 -17 0 -24 -8 -7 -8 -16 -12 -21 -10 -4 3
-13 -3 -19 -12 -10 -16 -11 -15 -6 5 3 18 -1 25 -20 32 -13 5 -24 14 -24 19 0
11 155 9 166 -2z m-848 -22 c-3 -3 -9 2 -12 12 -6 14 -5 15 5 6 7 -7 10 -15 7
-18z m1707 7 c-3 -3 -11 0 -18 7 -9 10 -8 11 6 5 10 -3 15 -9 12 -12z m-170
-17 c-6 16 -5 17 4 5 9 -12 12 -13 20 -1 6 9 11 10 15 2 4 -6 1 -11 -6 -11
-10 0 -9 -3 2 -11 13 -9 12 -10 -2 -5 -13 4 -17 0 -15 -12 4 -28 17 -42 38
-42 10 0 19 -5 19 -11 0 -5 -4 -8 -9 -4 -6 3 -9 -4 -8 -14 1 -22 5 -20 55 27
7 7 19 9 25 5 8 -5 6 -9 -5 -11 -10 -2 -18 -6 -18 -9 0 -3 8 -12 18 -20 15
-12 14 -13 -10 -7 -16 3 -28 2 -28 -3 0 -5 10 -9 21 -10 30 -3 37 -13 17 -27
-10 -7 -17 -15 -15 -17 1 -2 -4 2 -10 10 -9 10 -13 11 -13 3 0 -19 -67 51 -75
79 -8 23 -55 75 -55 61 0 -4 -5 1 -11 11 -18 30 1 41 28 15 22 -20 24 -21 18
-3z m-839 -32 c-11 -11 -19 6 -11 24 8 17 8 17 12 0 3 -10 2 -21 -1 -24z
m-1129 -19 c-10 -35 -28 -64 -40 -64 -2 0 -2 14 1 30 2 17 9 30 14 30 5 0 6 5
3 11 -6 8 25 42 32 35 1 -1 -3 -20 -10 -42z m1243 26 c0 -5 -5 -10 -11 -10 -5
0 -7 5 -4 10 3 6 8 10 11 10 2 0 4 -4 4 -10z m641 1 c-12 -8 -12 -12 3 -26 9
-10 14 -20 11 -24 -4 -3 -11 2 -17 12 -8 14 -13 16 -24 6 -8 -6 -14 -8 -14 -4
0 13 32 45 44 45 6 0 5 -4 -3 -9z m-1208 -31 c3 -13 0 -20 -9 -20 -8 0 -13 4
-11 9 4 16 -28 11 -67 -10 -13 -8 -16 -7 -11 1 8 13 62 39 81 40 7 0 14 -9 17
-20z m-368 -8 c-3 -3 -11 0 -18 7 -9 10 -8 11 6 5 10 -3 15 -9 12 -12z m785
-9 c0 -8 5 -11 10 -8 6 4 8 11 5 16 -4 5 3 9 14 9 12 0 21 -4 21 -10 0 -5 -7
-10 -15 -10 -9 0 -15 -9 -15 -21 0 -19 -1 -19 -16 -4 -9 9 -19 13 -23 9 -3 -4
0 -9 7 -11 6 -3 12 -9 12 -15 0 -6 9 -19 20 -28 20 -17 20 -18 -12 -14 -18 1
-36 3 -40 3 -5 1 -8 8 -8 16 0 8 -5 15 -11 15 -12 0 -8 -42 6 -85 6 -19 6 -19
-8 -3 -8 10 -17 15 -20 11 -4 -3 -7 -1 -7 5 0 7 -9 12 -19 12 -29 0 -35 17 -9
23 13 4 26 1 30 -6 5 -7 8 0 8 19 0 16 -6 36 -12 43 -11 11 -10 12 0 7 10 -6
11 -1 7 21 l-5 28 12 -26 c10 -19 16 -23 23 -15 6 6 9 19 7 28 -2 12 2 15 17
11 12 -3 21 -12 21 -20z m1082 -25 c-2 -10 -9 -18 -16 -18 -6 0 -4 -5 4 -10
12 -8 11 -10 -6 -10 -11 0 -21 6 -21 13 0 6 -3 23 -7 36 -6 15 -5 21 2 17 6
-3 13 -2 17 4 10 15 33 -12 27 -32z m348 38 c0 -2 -7 -7 -16 -10 -8 -3 -12 -2
-9 4 6 10 25 14 25 6z m-973 -12 c-3 -3 -12 -4 -19 -1 -8 3 -5 6 6 6 11 1 17
-2 13 -5z m390 0 c-3 -3 -12 -4 -19 -1 -8 3 -5 6 6 6 11 1 17 -2 13 -5z m1168
-4 c-3 -5 -10 -10 -16 -10 -5 0 -9 5 -9 10 0 6 7 10 16 10 8 0 12 -4 9 -10z
m45 -5 c10 -12 10 -15 -3 -15 -8 0 -17 7 -21 15 -3 8 -2 15 3 15 5 0 14 -7 21
-15z m-2395 -25 c-3 -5 1 -11 7 -13 7 -3 3 -6 -9 -6 -18 -1 -23 4 -23 25 0 22
2 25 15 14 8 -7 13 -16 10 -20z m558 10 c3 -11 2 -22 -3 -25 -4 -3 -10 6 -12
20 -6 30 7 34 15 5z m1024 5 c0 -8 -4 -15 -8 -15 -4 0 -9 -10 -11 -22 -3 -21
-4 -21 -9 4 -4 15 -3 25 1 23 5 -3 10 2 14 10 7 19 13 19 13 0z m-846 -8 c-6
-8 -7 -18 -3 -22 4 -5 1 -5 -6 -1 -10 6 -10 11 -1 22 6 8 14 14 16 14 3 0 0
-6 -6 -13z m65 -13 c4 -27 -10 -46 -29 -39 -24 10 -29 36 -10 51 23 17 35 13
39 -12z m369 17 c3 -5 1 -12 -5 -16 -5 -3 -10 1 -10 9 0 18 6 21 15 7z m-1095
-12 c0 -5 5 -7 11 -4 6 4 13 -3 16 -15 3 -13 9 -17 12 -11 5 8 13 6 27 -4 14
-11 15 -14 3 -9 -10 3 -20 1 -23 -4 -3 -5 -17 -8 -31 -7 -14 2 -23 -1 -19 -6
3 -5 9 -7 14 -4 5 3 12 0 16 -6 5 -8 -1 -10 -19 -7 -14 3 -28 0 -30 -6 -2 -6
-3 -2 -1 9 2 10 -4 27 -13 37 -9 10 -11 18 -5 18 6 0 9 7 6 15 -4 10 0 15 15
15 12 0 21 -5 21 -11z m2360 -29 c0 -5 -4 -10 -10 -10 -5 0 -10 5 -10 10 0 6
5 10 10 10 6 0 10 -4 10 -10z m-1920 -75 c7 -22 15 -86 19 -141 l6 -102 -34 5
c-21 4 -36 1 -41 -7 -5 -8 -10 -9 -14 -2 -4 6 3 16 14 22 11 6 20 16 20 23 0
8 -3 8 -9 -1 -6 -9 -12 2 -21 35 -7 26 -14 43 -17 36 -2 -6 0 -27 5 -46 12
-42 -10 -63 -39 -38 -19 16 -59 23 -59 10 0 -4 7 -12 16 -17 9 -5 15 -11 13
-13 -7 -10 22 -70 31 -64 6 3 8 10 5 15 -3 4 4 6 15 3 11 -3 17 -9 14 -14 -3
-5 -9 -7 -14 -4 -5 3 -14 -3 -19 -13 -10 -19 -109 -47 -141 -40 -10 2 -14 -4
-13 -19 2 -17 -3 -23 -16 -23 -24 0 -45 -25 -35 -42 6 -10 5 -11 -8 -1 -8 7
-17 11 -19 9 -2 -2 -21 -7 -41 -10 -37 -6 -63 9 -34 20 9 3 18 22 21 42 3 21
10 45 15 54 6 10 6 19 1 23 -5 3 -12 -3 -16 -12 -3 -10 -17 -26 -30 -36 l-25
-18 0 29 c0 18 10 38 26 53 22 21 24 21 18 4 -7 -17 -5 -18 8 -8 8 7 18 9 23
5 4 -4 5 3 2 16 -3 15 0 25 9 29 8 3 14 14 14 25 0 10 7 33 16 50 9 16 13 41
10 53 -8 31 2 55 23 54 10 0 11 -2 4 -6 -19 -7 10 -33 36 -33 20 0 24 -7 23
-40 -1 -8 4 -3 11 13 11 28 32 36 39 15 3 -7 14 -9 32 -4 22 5 26 11 21 27
-10 31 26 21 42 -11 12 -25 13 -24 13 12 0 20 6 38 13 41 9 3 9 11 0 38 -8 19
-9 37 -4 42 9 9 50 -104 48 -133 -1 -23 25 -122 30 -116 6 6 -23 173 -36 208
-11 29 -4 65 9 51 5 -4 14 -26 20 -48z m-165 24 c0 -8 8 -13 18 -11 9 2 17 -2
17 -8 0 -5 -6 -10 -12 -10 -7 0 -2 -9 12 -20 14 -10 21 -22 17 -26 -4 -4 -7
-2 -7 4 0 7 -14 12 -32 12 -18 0 -28 -4 -22 -8 6 -4 13 -15 17 -25 5 -14 3
-16 -10 -9 -9 5 -25 7 -37 4 -17 -4 -19 -3 -10 9 6 8 10 25 9 39 -1 14 2 35 8
48 11 24 32 25 32 1z m940 -7 c-7 -8 -35 7 -35 18 0 6 7 6 20 -2 10 -7 17 -14
15 -16z m-2055 -26 c0 -6 -4 -5 -9 3 -5 7 -14 10 -20 7 -12 -8 -15 6 -4 17 8
9 33 -12 33 -27z m1026 -16 c8 0 14 -4 14 -9 0 -13 -32 -19 -55 -11 -18 7 -19
8 -2 15 9 4 18 17 18 29 2 20 2 20 6 -1 2 -13 11 -23 19 -23z m1079 30 c-3 -5
-14 -10 -23 -10 -15 0 -15 2 -2 10 20 13 33 13 25 0z m717 -44 c-4 -7 -8 -5
-10 7 -2 9 -8 17 -13 17 -5 0 -9 5 -9 12 0 6 8 3 20 -7 11 -10 16 -23 12 -29z
m-2299 -2 c2 -10 11 -33 20 -51 9 -17 14 -40 10 -49 -4 -12 -3 -15 5 -10 8 5
10 2 6 -8 -4 -9 -1 -16 6 -16 7 0 10 -7 7 -15 -4 -8 -2 -17 4 -20 5 -4 7 -10
4 -15 -3 -5 3 -11 12 -13 14 -4 13 -5 -4 -6 -30 -1 -73 44 -73 77 0 21 2 24
10 12 17 -26 11 -6 -10 35 -20 39 -26 86 -13 98 8 9 12 5 16 -19z m417 16 c0
-5 -4 -10 -10 -10 -5 0 -10 5 -10 10 0 6 5 10 10 10 6 0 10 -4 10 -10z m1560
0 c-8 -5 -24 -9 -35 -9 l-20 0 20 9 c11 5 27 9 35 9 13 1 13 0 0 -9z m-767 -7
c-7 -2 -19 -2 -25 0 -7 3 -2 5 12 5 14 0 19 -2 13 -5z m-1140 -46 c-2 -4 1
-14 7 -22 6 -8 9 -19 5 -25 -4 -6 -3 -16 2 -23 17 -22 45 -106 38 -117 -3 -5
3 -10 14 -10 17 0 19 4 12 23 -5 12 -11 47 -14 77 -3 30 -4 46 -1 35 3 -11 8
-27 11 -35 3 -8 5 -18 5 -22 -1 -5 2 -8 6 -8 4 0 8 -8 8 -17 1 -10 4 -34 8
-53 6 -28 5 -33 -5 -22 -7 6 -23 12 -35 12 -24 0 -41 16 -24 22 6 2 -1 24 -15
50 -13 25 -27 66 -30 90 -4 23 -9 54 -11 68 -5 24 -5 24 9 5 9 -11 13 -23 10
-28z m241 -17 c-4 -23 -3 -40 3 -40 6 0 5 -17 -1 -45 -6 -25 -14 -45 -18 -45
-12 0 -10 48 2 55 18 11 11 25 -12 26 -13 0 -17 3 -10 6 6 2 12 9 12 14 0 6
-4 7 -10 4 -5 -3 -10 -2 -10 3 0 6 7 12 15 16 8 3 15 9 14 13 -3 19 2 33 11
33 6 0 8 -15 4 -40z m1906 30 c0 -5 -5 -10 -11 -10 -5 0 -7 5 -4 10 3 6 8 10
11 10 2 0 4 -4 4 -10z m-1860 -20 c0 -4 -6 -13 -14 -19 -11 -9 -16 -9 -22 0
-4 7 -2 15 4 17 7 2 10 8 7 13 -4 5 1 6 9 3 9 -3 16 -10 16 -14z m980 16 c0
-3 -4 -8 -10 -11 -5 -3 -10 -1 -10 4 0 6 5 11 10 11 6 0 10 -2 10 -4z m1302
-26 c17 -15 14 -16 -37 -16 -29 0 -52 3 -49 8 3 4 -1 8 -8 8 -10 0 -10 2 1 9
8 5 21 7 29 3 9 -3 13 -1 9 5 -10 17 34 3 55 -17z m-3239 5 c-3 -9 2 -24 12
-35 16 -18 16 -19 -4 -17 -16 1 -21 8 -21 27 0 15 3 30 7 33 10 11 13 8 6 -8z
m242 5 c3 -5 1 -10 -4 -10 -6 0 -11 5 -11 10 0 6 2 10 4 10 3 0 8 -4 11 -10z
m745 -55 c-7 -14 -19 -25 -26 -25 -7 0 -14 -10 -16 -22 -2 -12 -8 -23 -15 -25
-9 -3 -10 4 -3 26 13 45 21 56 31 40 8 -13 13 9 11 50 0 10 3 10 16 -2 14 -14
14 -20 2 -42z m2290 45 c0 -5 -2 -10 -4 -10 -3 0 -8 5 -11 10 -3 6 -1 10 4 10
6 0 11 -4 11 -10z m-266 -35 c-10 -8 -15 -15 -10 -15 5 0 2 -8 -5 -17 -12 -14
-12 -16 0 -8 9 5 12 4 7 -3 -7 -12 -77 -34 -85 -27 -2 3 10 8 28 11 18 4 29
10 24 13 -15 11 -13 31 3 31 8 0 13 4 9 9 -3 5 3 12 12 14 33 9 37 7 17 -8z
m-2717 -1 c-3 -3 -12 -4 -19 -1 -8 3 -5 6 6 6 11 1 17 -2 13 -5z m271 -19 c-3
-3 -9 2 -12 12 -6 14 -5 15 5 6 7 -7 10 -15 7 -18z m2643 2 c-10 -9 -11 -8 -5
6 3 10 9 15 12 12 3 -3 0 -11 -7 -18z m-2861 -7 c0 -5 -7 -7 -15 -4 -8 4 -15
8 -15 10 0 2 7 4 15 4 8 0 15 -4 15 -10z m65 -75 c11 -1 23 4 27 10 5 6 8 3 8
-6 0 -21 -46 -31 -60 -13 -6 6 -13 29 -16 51 l-4 38 13 -40 c9 -28 18 -40 32
-40z m1625 66 c0 -5 -7 -14 -15 -21 -12 -10 -15 -10 -15 0 0 7 -6 10 -14 7 -8
-3 -16 0 -19 6 -3 8 8 13 29 14 19 2 34 -1 34 -6z m-1460 -22 c7 -11 9 -24 5
-27 -7 -7 -35 25 -35 40 0 16 19 8 30 -13z m2636 -25 c1 -9 -1 -13 -4 -9 -4 4
-7 10 -7 13 0 4 -4 14 -9 22 -7 12 -6 13 4 3 8 -7 15 -20 16 -29z m-2733 -14
c3 -11 1 -18 -4 -14 -5 3 -9 12 -9 20 0 20 7 17 13 -6z m370 0 c-3 -12 -8 -19
-11 -16 -5 6 5 36 12 36 2 0 2 -9 -1 -20z m732 10 c-6 -10 21 -15 63 -11 13 1
21 -2 18 -7 -3 -6 1 -15 9 -22 8 -7 15 -21 15 -32 0 -15 -5 -18 -20 -13 -15 5
-18 3 -14 -9 4 -11 0 -16 -14 -16 -11 0 -25 -7 -32 -15 -11 -13 -8 -15 14 -15
14 0 35 -6 46 -12 17 -11 22 -10 30 2 10 17 15 14 24 -17 8 -26 1 -28 -34 -8
-28 16 -84 20 -75 5 3 -5 13 -6 22 -3 10 4 14 2 10 -4 -4 -6 -1 -14 5 -17 7
-3 3 -3 -9 0 -32 7 -68 -13 -53 -31 8 -9 8 -15 0 -20 -6 -3 -8 -10 -5 -14 2
-5 -7 -6 -20 -3 -14 2 -25 9 -25 16 0 23 13 56 20 51 4 -2 16 3 26 11 13 11
15 17 7 20 -9 4 -10 11 -4 22 5 9 10 20 10 24 1 4 4 15 8 24 4 10 0 22 -10 29
-10 7 -17 19 -17 28 0 8 -5 17 -12 19 -13 5 -2 28 13 28 6 0 7 -4 4 -10z m505
-5 c0 -8 -7 -15 -15 -15 -8 0 -15 7 -15 15 0 8 7 15 15 15 8 0 15 -7 15 -15z
m890 1 c0 -9 -40 -13 -46 -5 -3 5 6 9 20 9 14 0 26 -2 26 -4z m-1019 -23 c13
-16 12 -17 -3 -4 -17 13 -22 21 -14 21 2 0 10 -8 17 -17z m-1075 -30 c-11 -11
-17 4 -9 23 7 18 8 18 11 1 2 -10 1 -21 -2 -24z m30 11 c-4 -9 -9 -15 -11 -12
-3 3 -3 13 1 22 4 9 9 15 11 12 3 -3 3 -13 -1 -22z m2281 20 c-3 -3 -12 -4
-19 -1 -8 3 -5 6 6 6 11 1 17 -2 13 -5z m73 2 c0 -9 -30 -14 -35 -6 -4 6 3 10
14 10 12 0 21 -2 21 -4z m-2015 -24 c-3 -3 -11 0 -18 7 -9 10 -8 11 6 5 10 -3
15 -9 12 -12z m842 12 c-3 -3 -12 -4 -19 -1 -8 3 -5 6 6 6 11 1 17 -2 13 -5z
m-1509 -16 c-6 -18 -25 -20 -31 -3 -5 10 0 15 14 15 12 0 19 -5 17 -12z m909
-4 c-3 -3 -12 -4 -19 -1 -8 3 -5 6 6 6 11 1 17 -2 13 -5z m63 -20 c0 -2 -9 0
-20 6 -11 6 -20 13 -20 16 0 2 9 0 20 -6 11 -6 20 -13 20 -16z m1670 -4 c0 -5
-7 -7 -15 -4 -8 4 -15 8 -15 10 0 2 7 4 15 4 8 0 15 -4 15 -10z m-1135 -10 c3
-5 -3 -10 -14 -10 -12 0 -21 5 -21 10 0 6 6 10 14 10 8 0 18 -4 21 -10z m1208
1 c-4 -3 -10 -9 -13 -13 -3 -3 -13 -1 -22 6 -15 11 -14 13 12 13 17 0 27 -3
23 -6z m-2538 -11 c3 -5 -1 -10 -9 -10 -9 0 -16 5 -16 10 0 6 4 10 9 10 6 0
13 -4 16 -10z m1065 -11 c0 -4 7 -6 15 -2 9 3 23 -1 33 -9 9 -8 25 -18 35 -21
24 -9 21 -29 -8 -50 -20 -14 -24 -15 -19 -2 3 8 10 15 15 15 5 0 9 5 9 10 0 6
-9 10 -19 10 -11 0 -23 5 -26 11 -5 6 -12 4 -20 -8 -7 -10 -17 -15 -21 -10 -4
4 -2 7 4 7 7 0 12 7 12 15 0 8 -4 15 -10 15 -5 0 -10 -5 -10 -10 0 -6 -11 -8
-25 -4 -16 4 -25 2 -25 -6 0 -7 7 -10 15 -6 9 3 15 0 15 -9 0 -8 18 -24 39
-35 22 -11 42 -24 46 -30 3 -5 14 -10 23 -10 22 0 48 -17 40 -25 -3 -3 -23 1
-43 9 -45 19 -75 20 -75 4 -1 -7 -7 -1 -16 14 -13 26 -38 29 -54 8 -3 -4 -14
-4 -25 1 -18 7 -18 8 -1 8 15 1 17 8 14 41 -2 22 1 42 7 45 6 3 5 7 -3 11 -20
10 -4 23 23 18 14 -2 25 0 25 5 0 6 7 8 15 5 8 -4 15 -10 15 -15z m284 -26
c-6 -24 -5 -26 8 -15 13 10 17 8 26 -15 12 -32 13 -83 2 -83 -9 0 -24 31 -22
43 1 4 -5 7 -13 7 -8 0 -15 5 -15 10 0 6 5 10 11 10 8 0 8 4 1 13 -12 15 -12
57 0 57 5 0 5 -12 2 -27z m160 2 c3 -8 -3 -19 -13 -25 -15 -7 -20 -6 -25 7 -4
9 -1 20 6 25 19 11 25 10 32 -7z m-907 -21 c-3 -3 -12 -4 -19 -1 -8 3 -5 6 6
6 11 1 17 -2 13 -5z m1020 -41 c-3 -10 -5 -2 -5 17 0 19 2 27 5 18 2 -10 2
-26 0 -35z m-1217 28 c0 -10 -30 -24 -37 -17 -3 3 -2 9 2 15 8 13 35 15 35 2z
m230 -11 c0 -5 -7 -10 -15 -10 -8 0 -15 5 -15 10 0 6 7 10 15 10 8 0 15 -4 15
-10z m475 0 c-3 -5 -12 -10 -18 -10 -7 0 -6 4 3 10 19 12 23 12 15 0z m115
-21 c0 -5 -4 -9 -10 -9 -5 0 -10 7 -10 16 0 8 5 12 10 9 6 -3 10 -10 10 -16z
m-24 -24 c16 -14 35 -25 42 -25 9 0 8 -7 -4 -25 -10 -15 -12 -25 -5 -25 6 0
11 5 11 11 0 5 5 7 10 4 6 -4 8 -15 5 -25 -4 -11 0 -22 9 -27 13 -7 13 -10 -4
-21 -11 -6 -21 -8 -25 -2 -3 5 -1 12 5 15 16 10 -8 35 -26 28 -8 -3 -25 -2
-39 1 -30 8 -35 37 -5 31 11 -2 18 0 15 6 -4 5 -1 9 4 9 17 0 13 19 -9 37 -18
15 -27 33 -17 33 2 0 17 -11 33 -25z m-433 -2 c-3 -7 -9 -13 -14 -13 -5 0 -9
6 -9 13 0 8 6 14 14 14 8 0 12 -6 9 -14z m270 -19 c-7 -3 -9 -12 -6 -20 3 -9
-1 -14 -11 -14 -9 0 -19 -7 -22 -15 -4 -8 -11 -15 -17 -15 -5 0 -3 8 5 18 8 9
18 25 21 35 4 9 14 17 24 16 10 0 13 -3 6 -5z m632 -4 c3 -5 1 -10 -4 -10 -6
0 -11 5 -11 10 0 6 2 10 4 10 3 0 8 -4 11 -10z m235 6 c0 -3 -13 -11 -30 -20
-33 -16 -40 -11 -12 10 16 13 42 19 42 10z m-1651 -10 c-2 -2 -15 -9 -29 -15
-24 -11 -24 -11 -6 3 16 13 49 24 35 12z m637 -17 c1 -8 5 -22 9 -32 6 -14 3
-17 -16 -15 -15 2 -23 -2 -21 -9 1 -7 -2 -13 -8 -13 -15 0 -12 27 6 44 14 15
14 16 -3 17 -10 0 -13 3 -5 6 6 2 10 8 7 13 -3 5 2 7 12 6 9 -2 17 -9 19 -17z
m721 -7 c13 -18 17 -29 9 -29 -7 0 -20 13 -29 29 -9 15 -13 28 -8 28 4 0 17
-13 28 -28z m-490 -4 c-21 -7 -32 -7 -40 1 -8 8 0 11 29 10 39 -1 39 -1 11
-11z m-616 -63 c-3 -5 -7 -1 -9 10 -3 11 -9 23 -16 28 -8 5 -7 10 4 17 12 7
16 4 21 -18 3 -15 3 -31 0 -37z m289 24 c0 -11 -4 -17 -10 -14 -18 11 -10 -4
15 -29 17 -17 25 -20 25 -11 0 8 6 15 14 15 8 0 22 3 32 7 13 5 15 3 9 -7 -5
-8 -3 -11 6 -8 8 3 13 10 12 16 -1 5 4 13 12 16 20 7 19 -9 -1 -28 -10 -11
-24 -14 -41 -10 -16 4 -28 2 -34 -7 -4 -8 -19 -15 -32 -16 -21 -1 -25 4 -31
35 -3 22 -1 39 6 43 6 4 7 12 3 19 -5 9 -4 11 3 6 7 -4 12 -16 12 -27z m300 1
c-8 -5 -19 -10 -25 -10 -5 0 -3 5 5 10 8 5 20 10 25 10 6 0 3 -5 -5 -10z m420
-10 c6 -11 15 -18 20 -15 6 4 7 -1 3 -11 -5 -13 -3 -15 7 -9 8 5 11 4 6 -3 -3
-6 3 -12 16 -14 12 -2 23 -9 26 -17 3 -8 0 -11 -7 -7 -20 13 -12 -12 14 -40
36 -38 31 -59 -5 -22 -17 16 -28 34 -25 38 3 5 0 12 -8 17 -7 4 -20 19 -30 33
-9 14 -24 35 -33 48 -9 12 -12 22 -6 22 6 0 16 -9 22 -20z m358 -6 c2 -1 -1
-5 -7 -8 -5 -4 -15 4 -22 16 -12 22 -11 22 7 8 10 -8 20 -15 22 -16z m95 4 c7
-26 -10 -50 -32 -46 -9 2 -21 -3 -27 -11 -6 -8 -16 -11 -22 -7 -18 11 -14 26
6 26 15 0 15 2 2 11 -11 7 -5 8 21 3 22 -3 39 -2 43 5 4 6 3 11 -2 11 -5 0 -9
7 -9 15 0 23 14 18 20 -7z m-1219 -3 c-4 -8 -8 -15 -10 -15 -2 0 -4 7 -4 15 0
8 4 15 10 15 5 0 7 -7 4 -15z m291 4 c11 -17 -1 -21 -15 -4 -8 9 -8 15 -2 15
6 0 14 -5 17 -11z m120 1 c-3 -5 -10 -10 -16 -10 -5 0 -9 5 -9 10 0 6 7 10 16
10 8 0 12 -4 9 -10z m-725 -15 c-14 -17 -30 -20 -30 -6 0 5 8 12 18 14 9 3 19
5 21 6 2 0 -2 -6 -9 -14z m1025 5 c3 -5 1 -10 -4 -10 -6 0 -11 5 -11 10 0 6 2
10 4 10 3 0 8 -4 11 -10z m166 -1 c-16 -6 -28 -6 -35 1 -7 7 1 10 25 9 32 0
33 -1 10 -10z m-1251 -9 c-8 -5 -22 -9 -30 -9 -10 0 -8 3 5 9 27 12 43 12 25
0z m747 4 c-3 -3 -12 -4 -19 -1 -8 3 -5 6 6 6 11 1 17 -2 13 -5z m-797 -14 c0
-5 -5 -10 -11 -10 -5 0 -7 5 -4 10 3 6 8 10 11 10 2 0 4 -4 4 -10z m-164 -14
c16 -17 18 -26 4 -26 -5 0 -14 9 -20 20 -12 23 -5 26 16 6z m772 -17 c-7 -13
-22 -25 -32 -26 -16 -1 -14 3 10 27 34 32 39 32 22 -1z m202 21 c0 -5 -2 -10
-4 -10 -3 0 -8 5 -11 10 -3 6 -1 10 4 10 6 0 11 -4 11 -10z m37 -16 c-3 -3
-12 -4 -19 -1 -8 3 -5 6 6 6 11 1 17 -2 13 -5z m136 -15 c5 -3 1 -9 -8 -12 -9
-4 -13 -3 -10 3 3 6 1 10 -5 10 -6 0 -8 5 -5 11 4 6 10 7 14 2 3 -4 10 -11 14
-14z m207 -9 c12 0 18 -48 7 -59 -6 -6 -18 -11 -26 -11 -13 1 -13 2 2 11 21
12 23 49 2 49 -17 0 -18 2 -8 27 7 17 8 17 11 1 2 -10 7 -18 12 -18z m138 18
c-2 -7 3 -12 10 -10 6 1 12 -7 12 -17 0 -41 117 -129 148 -112 11 6 21 3 34
-14 19 -25 24 -55 8 -55 -5 0 -7 6 -4 13 2 7 -4 22 -16 32 -12 11 -20 13 -20
6 0 -6 7 -14 15 -17 8 -4 12 -10 9 -15 -3 -5 -13 0 -23 12 -24 30 -49 19 -47
-21 1 -17 6 -34 11 -38 6 -4 12 -16 14 -27 3 -20 3 -20 -20 0 -13 11 -28 26
-33 34 -5 9 -11 10 -15 3 -3 -6 -20 -13 -36 -17 -20 -4 -26 -3 -17 3 11 8 11
10 -1 15 -8 3 -20 0 -26 -6 -8 -8 -11 -5 -11 12 0 16 5 21 14 18 22 -9 36 13
23 35 -10 16 -8 22 12 39 13 10 19 20 15 20 -5 1 -16 2 -24 3 -8 0 -16 10 -16
21 -1 11 -2 28 -3 38 -1 9 -7 16 -13 15 -7 -2 -14 7 -16 20 -2 12 1 22 7 22 6
0 10 -6 9 -12z m-1188 -13 c0 -8 -4 -15 -10 -15 -5 0 -7 7 -4 15 4 8 8 15 10
15 2 0 4 -7 4 -15z m410 5 c-19 -13 -30 -13 -30 0 0 6 10 10 23 10 18 0 19 -2
7 -10z m190 -1 c0 -13 -28 -18 -33 -6 -3 7 3 13 14 13 11 0 19 -3 19 -7z m386
2 c-4 -5 -3 -11 1 -14 5 -2 2 -2 -6 0 -7 2 -20 -2 -27 -8 -11 -9 -14 -9 -14 0
0 6 10 16 23 21 29 12 29 12 23 1z m520 -37 c-6 -16 -8 -16 -20 6 -16 31 -9
47 12 27 9 -9 12 -23 8 -33z m204 42 c0 -2 -7 -6 -15 -10 -8 -3 -15 -1 -15 4
0 6 7 10 15 10 8 0 15 -2 15 -4z m-1936 -38 c4 3 4 -1 1 -10 -7 -18 5 -47 31
-72 16 -16 8 -21 -20 -10 -9 3 -16 12 -16 19 0 7 -6 15 -14 18 -23 9 -46 63
-32 77 8 8 15 6 27 -9 9 -11 20 -17 23 -13z m959 18 c4 -10 0 -12 -14 -9 -10
3 -16 9 -13 14 8 13 21 11 27 -5z m-407 -22 c-4 -9 1 -13 16 -11 14 1 22 -5
24 -20 3 -15 -1 -23 -10 -23 -8 0 -22 -3 -31 -6 -13 -5 -15 -2 -9 21 4 18 3
26 -3 22 -6 -4 -8 3 -5 18 2 14 9 22 14 19 5 -3 7 -12 4 -20z m329 16 c16 -7
14 -8 -12 -7 -18 1 -33 5 -33 10 0 9 19 8 45 -3z m790 -10 c-3 -5 1 -10 9 -10
11 0 16 -10 16 -30 0 -31 -3 -34 -52 -44 -26 -6 -27 -5 -21 26 6 34 29 68 45
68 5 0 6 -4 3 -10z m-945 -11 c0 -5 -7 -9 -15 -9 -8 0 -15 -5 -15 -11 0 -5 5
-7 10 -4 6 3 10 2 10 -4 0 -11 -21 -20 -36 -14 -21 8 -4 48 22 49 13 1 24 -2
24 -7z m1120 7 c0 -3 -4 -8 -10 -11 -5 -3 -10 -1 -10 4 0 6 5 11 10 11 6 0 10
-2 10 -4z m-630 -15 c0 -5 -7 -12 -16 -15 -14 -5 -15 -4 -4 9 14 17 20 19 20
6z m584 0 c3 -5 26 -14 51 -20 25 -6 45 -16 45 -21 0 -7 -7 -7 -21 0 -11 7
-23 9 -26 6 -3 -3 -15 1 -27 9 -11 8 -29 15 -39 15 -10 0 -15 5 -12 10 8 12
22 13 29 1z m-1776 -26 c-3 -3 -9 2 -12 12 -6 14 -5 15 5 6 7 -7 10 -15 7 -18z
m1239 19 c-3 -3 -12 -4 -19 -1 -8 3 -5 6 6 6 11 1 17 -2 13 -5z m147 -30 c3
-8 2 -12 -4 -9 -6 3 -10 10 -10 16 0 14 7 11 14 -7z m608 -1 c21 -25 33 -59
16 -46 -7 6 -31 14 -52 17 -28 6 -36 10 -26 16 8 5 19 5 25 0 6 -5 17 -5 25 0
13 8 12 10 0 14 -43 13 -44 14 -24 15 11 1 28 -7 36 -16z m-2322 -19 c-1 -4 4
-11 12 -16 9 -6 6 -7 -9 -3 -20 5 -23 3 -23 -19 0 -16 -6 -26 -14 -26 -18 0
-29 27 -14 36 7 5 8 2 3 -6 -5 -9 -4 -11 4 -6 6 4 9 12 5 17 -3 6 2 19 12 30
16 18 29 14 24 -7z m523 6 c3 -11 1 -18 -4 -14 -5 3 -9 12 -9 20 0 20 7 17 13
-6z m521 5 c-4 -8 -11 -15 -16 -15 -6 0 -5 6 2 15 7 8 14 15 16 15 2 0 1 -7
-2 -15z m-1414 -17 c0 -12 -3 -18 -7 -14 -11 10 -12 36 -2 36 5 0 9 -10 9 -22z
m2040 18 c0 -3 -4 -8 -10 -11 -5 -3 -10 -1 -10 4 0 6 5 11 10 11 6 0 10 -2 10
-4z m-2073 -52 c-9 -9 -27 6 -27 22 0 13 2 13 16 -1 9 -9 14 -18 11 -21z
m1253 26 c-11 -7 -9 -13 11 -29 l24 -20 -22 2 c-13 1 -23 7 -23 14 0 6 -9 18
-20 26 -19 13 -18 14 12 15 22 0 28 -2 18 -8z m-703 -38 c13 -8 10 -11 -15
-20 -30 -10 -30 -10 -27 21 5 44 4 44 16 25 5 -10 17 -21 26 -26z m821 -21
c-15 -5 -18 3 -11 29 l7 25 6 -25 c3 -14 2 -27 -2 -29z m-1105 23 c-4 -11 -9
-12 -19 -3 -18 15 -18 14 5 16 14 1 18 -3 14 -13z m1811 -15 c-3 -5 -10 -7
-15 -3 -5 3 -7 10 -3 15 3 5 10 7 15 3 5 -3 7 -10 3 -15z m333 15 c-3 -3 -12
-4 -19 -1 -8 3 -5 6 6 6 11 1 17 -2 13 -5z m-2022 -34 c-3 -5 -12 -10 -18 -10
-7 0 -6 4 3 10 19 12 23 12 15 0z m1659 -15 c-4 -8 -11 -15 -16 -15 -6 0 -5 6
2 15 7 8 14 15 16 15 2 0 1 -7 -2 -15z m-1869 -5 c3 -5 1 -10 -4 -10 -6 0 -11
5 -11 10 0 6 2 10 4 10 3 0 8 -4 11 -10z m2350 -10 c17 -7 15 -9 -12 -9 -18
-1 -33 4 -33 9 0 12 17 12 45 0z m245 -5 c-7 -9 -15 -13 -17 -11 -7 7 7 26 19
26 6 0 6 -6 -2 -15z m50 6 c0 -5 -7 -11 -15 -15 -15 -5 -20 5 -8 17 9 10 23 9
23 -2z m-730 -15 c0 -2 -7 -6 -15 -10 -8 -3 -15 -1 -15 4 0 6 7 10 15 10 8 0
15 -2 15 -4z m-75 -15 c10 -17 -9 -20 -30 -5 -18 14 -18 14 2 14 12 0 24 -4
28 -9z m145 -11 c0 -5 -7 -10 -16 -10 -11 0 -14 -6 -9 -20 4 -11 2 -20 -4 -20
-15 0 -14 47 2 53 20 9 27 8 27 -3z m60 6 c0 -3 -4 -8 -10 -11 -5 -3 -10 -1
-10 4 0 6 5 11 10 11 6 0 10 -2 10 -4z m-2330 -14 c0 -4 -10 -9 -22 -9 -18 -2
-20 0 -8 7 18 12 30 13 30 2z m550 -2 c0 -5 -5 -10 -11 -10 -5 0 -7 5 -4 10 3
6 8 10 11 10 2 0 4 -4 4 -10z m1743 -5 c-3 -9 -8 -14 -10 -11 -3 3 -2 9 2 15
9 16 15 13 8 -4z m467 11 c0 -3 -4 -8 -10 -11 -5 -3 -10 -1 -10 4 0 6 5 11 10
11 6 0 10 -2 10 -4z m30 -16 c0 -5 -5 -10 -11 -10 -5 0 -7 5 -4 10 3 6 8 10
11 10 2 0 4 -4 4 -10z m-2770 -25 c11 -13 15 -13 21 -3 7 10 9 9 9 -3 0 -11
-8 -17 -22 -16 -13 0 -32 -3 -43 -7 -16 -6 -15 -4 3 6 17 11 20 16 10 26 -8 8
-8 12 -1 12 6 0 16 -7 23 -15z m657 9 c-3 -3 -12 -4 -19 -1 -8 3 -5 6 6 6 11
1 17 -2 13 -5z m-232 -14 c3 -5 1 -10 -4 -10 -6 0 -11 -7 -11 -15 0 -8 -4 -15
-10 -15 -5 0 -10 5 -10 11 0 8 -5 8 -15 -1 -8 -7 -15 -8 -15 -2 0 14 25 33 33
25 4 -3 7 -1 7 5 0 15 17 16 25 2z m1862 -24 c-4 -9 -11 -16 -17 -16 -11 0
-14 33 -3 44 11 10 26 -11 20 -28z m73 -10 c0 -3 -4 -8 -10 -11 -5 -3 -10 -1
-10 4 0 6 5 11 10 11 6 0 10 -2 10 -4z m-1549 -62 c10 -13 10 -17 -2 -25 -23
-14 -42 -11 -35 7 3 9 6 20 6 25 0 14 16 11 31 -7z m36 -16 c-3 -8 -6 -5 -6 6
-1 11 2 17 5 13 3 -3 4 -12 1 -19z"/>
<path d="M2690 2213 c19 -3 39 -9 45 -14 5 -5 13 -9 19 -9 5 0 1 7 -10 15 -10
8 -35 14 -54 13 l-35 -1 35 -4z"/>
<path d="M1066 1365 c4 -8 8 -15 10 -15 2 0 4 7 4 15 0 8 -4 15 -10 15 -5 0
-7 -7 -4 -15z"/>
<path d="M1334 1094 c3 -9 6 -18 6 -20 0 -2 4 -4 9 -4 5 0 7 9 4 20 -3 11 -10
20 -15 20 -6 0 -7 -7 -4 -16z"/>
<path d="M1255 1050 c-8 -13 5 -13 25 0 13 8 13 10 -2 10 -9 0 -20 -4 -23 -10z"/>
<path d="M1090 1019 c0 -5 5 -7 10 -4 6 3 10 8 10 11 0 2 -4 4 -10 4 -5 0 -10
-5 -10 -11z"/>
<path d="M1260 1020 c0 -6 7 -10 15 -10 8 0 15 2 15 4 0 2 -7 6 -15 10 -8 3
-15 1 -15 -4z"/>
<path d="M1153 1012 c-6 -4 -13 -23 -17 -42 l-7 -35 21 39 c21 41 22 50 3 38z"/>
<path d="M1076 899 c-3 -18 -4 -34 -2 -36 2 -3 7 10 11 27 4 17 5 34 2 36 -2
3 -7 -10 -11 -27z"/>
<path d="M2560 415 c0 -9 5 -15 11 -13 6 2 11 8 11 13 0 5 -5 11 -11 13 -6 2
-11 -4 -11 -13z"/>
<path d="M3336 2125 c-3 -9 0 -15 9 -15 16 0 20 16 6 24 -5 3 -11 -1 -15 -9z"/>
<path d="M3355 1784 l-30 -25 30 12 c38 16 49 25 38 32 -4 3 -22 -6 -38 -19z"/>
<path d="M3385 1751 c-3 -5 -1 -12 5 -16 5 -3 10 1 10 9 0 18 -6 21 -15 7z"/>
<path d="M406 1642 c-13 -12 -5 -22 19 -22 14 0 25 4 25 9 0 10 -36 21 -44 13z"/>
<path d="M245 1511 c-3 -5 -1 -12 4 -15 5 -3 11 1 15 9 6 16 -9 21 -19 6z"/>
<path d="M310 1480 c0 -5 7 -10 15 -10 8 0 15 -5 15 -12 0 -6 3 -8 6 -5 8 8
-14 37 -27 37 -5 0 -9 -4 -9 -10z"/>
<path d="M3220 1436 c0 -9 7 -12 20 -9 11 3 17 9 14 14 -8 14 -34 10 -34 -5z"/>
<path d="M1608 1433 c12 -2 30 -2 40 0 9 3 -1 5 -23 4 -22 0 -30 -2 -17 -4z"/>
<path d="M1520 1309 c0 -5 5 -7 10 -4 6 3 10 8 10 11 0 2 -4 4 -10 4 -5 0 -10
-5 -10 -11z"/>
<path d="M2355 1250 c-3 -5 0 -10 8 -10 8 0 17 -10 20 -22 9 -31 16 -19 10 15
-5 27 -26 36 -38 17z"/>
<path d="M1838 1243 c7 -3 16 -2 19 1 4 3 -2 6 -13 5 -11 0 -14 -3 -6 -6z"/>
<path d="M1623 1165 c-3 -9 -3 -18 -1 -21 3 -3 8 4 11 16 6 23 -1 27 -10 5z"/>
<path d="M1980 1151 c0 -5 5 -13 10 -16 6 -3 10 -2 10 4 0 5 -4 13 -10 16 -5
3 -10 2 -10 -4z"/>
<path d="M1441 1134 c0 -11 3 -14 6 -6 3 7 2 16 -1 19 -3 4 -6 -2 -5 -13z"/>
<path d="M2380 1130 c0 -5 10 -10 23 -11 l22 0 -22 -9 c-30 -12 -31 -34 -1
-25 17 6 20 4 15 -9 -7 -17 1 -20 19 -8 10 6 12 28 5 65 -2 11 -61 8 -61 -3z"/>
<path d="M2030 1110 c0 -5 5 -10 11 -10 5 0 7 5 4 10 -3 6 -8 10 -11 10 -2 0
-4 -4 -4 -10z"/>
<path d="M2298 1113 c6 -2 18 -2 25 0 6 3 1 5 -13 5 -14 0 -19 -2 -12 -5z"/>
<path d="M1582 1085 c0 -16 2 -22 5 -12 2 9 2 23 0 30 -3 6 -5 -1 -5 -18z"/>
<path d="M1460 1085 c0 -8 5 -15 10 -15 6 0 10 7 10 15 0 8 -4 15 -10 15 -5 0
-10 -7 -10 -15z"/>
<path d="M2331 1097 c2 -1 13 -9 24 -17 19 -14 19 -14 6 3 -7 9 -18 17 -24 17
-6 0 -8 -1 -6 -3z"/>
<path d="M1800 1084 c0 -8 27 -34 35 -34 4 0 5 7 2 14 -4 10 -1 13 9 9 7 -3
14 0 14 6 0 6 -13 11 -30 11 -16 0 -30 -3 -30 -6z"/>
<path d="M2088 1052 c20 -22 41 -37 45 -35 13 8 -39 68 -61 71 -18 3 -16 -3
16 -36z"/>
<path d="M2453 1063 c-26 -10 -11 -30 41 -55 55 -27 69 -28 59 -2 -3 9 -13 12
-23 9 -11 -4 -20 1 -24 12 -4 10 -2 19 3 21 6 2 11 8 11 14 0 6 -7 4 -17 -3
-13 -11 -17 -11 -20 -1 -5 13 -10 14 -30 5z m27 -23 c13 -8 13 -10 -2 -10 -9
0 -20 5 -23 10 -8 13 5 13 25 0z"/>
<path d="M1457 1053 c-4 -3 -7 -20 -6 -37 l1 -31 8 35 c9 36 8 45 -3 33z"/>
<path d="M2810 1056 c0 -2 7 -9 15 -16 13 -11 14 -10 9 4 -5 14 -24 23 -24 12z"/>
<path d="M1945 1031 c6 -11 4 -13 -8 -8 -20 8 -21 -2 -3 -25 14 -19 41 -24 50
-9 3 4 -6 19 -21 32 -14 13 -23 18 -18 10z"/>
<path d="M2813 1024 c4 -7 1 -17 -7 -23 -10 -9 -16 -8 -26 4 -17 21 -28 19
-32 -6 l-3 -21 -27 22 c-16 12 -28 19 -28 15 0 -10 27 -35 39 -35 5 0 13 -10
17 -22 4 -13 12 -26 18 -30 8 -6 6 -11 -4 -18 -9 -6 -10 -10 -3 -10 6 0 20 -3
30 -6 14 -5 15 -4 4 4 -8 6 -11 17 -8 26 4 11 1 16 -11 16 -14 0 -14 2 -3 9 8
5 21 7 29 3 11 -4 13 -1 7 9 -5 8 -1 7 12 -3 26 -24 43 -23 43 3 0 21 0 21 21
-2 l21 -24 -21 32 c-12 17 -21 36 -21 43 0 7 -6 10 -14 7 -7 -3 -19 0 -26 6
-9 8 -11 9 -7 1z"/>
<path d="M18 932 c-4 -12 -2 -25 4 -28 16 -10 22 4 11 28 l-10 22 -5 -22z"/>
<path d="M56 934 c-9 -23 -8 -24 13 -24 14 0 18 5 14 20 -6 24 -19 26 -27 4z"/>
<path d="M2827 923 c-3 -5 3 -17 14 -27 27 -23 32 -17 10 13 -10 13 -21 19
-24 14z"/>
<path d="M2893 896 c17 -18 41 -38 52 -44 12 -7 14 -12 6 -12 -23 0 8 -30 32
-30 19 0 19 1 4 18 -10 10 -17 21 -17 25 0 3 -12 19 -27 34 -14 15 -23 21 -18
13 5 -8 -3 -5 -17 8 -38 35 -52 26 -15 -12z"/>
<path d="M2440 891 c0 -5 5 -13 10 -16 6 -3 10 -2 10 4 0 5 -4 13 -10 16 -5 3
-10 2 -10 -4z"/>
<path d="M2808 883 c-10 -3 -18 -8 -18 -13 0 -14 93 -91 99 -83 9 13 31 14 31
2 0 -5 5 -7 11 -4 7 5 4 14 -7 26 -12 13 -13 19 -4 19 10 0 10 3 0 15 -9 10
-17 12 -23 6 -11 -11 -37 -3 -57 19 -8 10 -23 15 -32 13z"/>
<path d="M130 829 c-7 -11 -9 -23 -6 -26 10 -10 33 5 39 26 7 28 -19 28 -33 0z"/>
<path d="M3 780 c2 -50 5 -65 17 -65 8 0 16 -8 18 -19 3 -11 0 -16 -7 -12 -6
4 -11 2 -11 -4 0 -6 -4 -9 -9 -5 -6 3 -10 -80 -11 -210 0 -176 2 -215 13 -215
8 0 19 10 25 23 6 12 29 55 52 96 22 40 37 77 34 82 -3 5 2 12 10 15 22 8 20
25 -1 17 -15 -5 -15 -3 2 11 15 13 17 19 7 23 -10 4 -10 7 1 17 23 17 32 56
14 56 -21 0 -25 19 -14 63 7 27 12 35 18 25 6 -9 8 -4 7 14 -1 15 -6 24 -11
21 -4 -2 -7 6 -5 19 2 12 -1 24 -5 25 -5 1 -17 11 -27 23 -10 12 -22 21 -27
21 -4 -1 -8 4 -8 9 0 11 -24 30 -37 30 -4 0 -5 -8 -3 -19 3 -14 -1 -18 -15
-14 -11 3 -21 12 -24 22 -2 9 -4 -13 -3 -49z m57 -10 c0 -5 -6 -10 -14 -10 -8
0 -18 5 -21 10 -3 6 3 10 14 10 12 0 21 -4 21 -10z m40 -21 c0 -6 -7 -9 -14
-6 -10 4 -13 1 -10 -7 3 -8 0 -17 -7 -22 -7 -4 -15 -2 -17 4 -2 7 -10 12 -18
12 -8 0 -14 5 -14 11 0 5 4 8 8 5 4 -2 14 -1 22 5 21 12 50 11 50 -2z m8 -74
c-3 -3 -9 2 -12 12 -6 14 -5 15 5 6 7 -7 10 -15 7 -18z m8 -72 c-4 -24 -22
-27 -22 -3 0 11 6 20 12 20 7 0 11 -8 10 -17z"/>
<path d="M3152 831 c4 -13 18 -16 19 -4 0 4 -5 9 -11 12 -7 2 -11 -2 -8 -8z"/>
<path d="M3171 791 c-9 -6 -8 -11 3 -20 15 -13 36 -7 36 9 0 12 -25 19 -39 11z"/>
<path d="M3010 783 c0 -5 9 -18 20 -28 11 -10 20 -15 20 -11 0 4 -9 16 -20 28
-11 12 -20 17 -20 11z"/>
<path d="M3310 770 c6 -11 13 -20 16 -20 2 0 0 9 -6 20 -6 11 -13 20 -16 20
-2 0 0 -9 6 -20z"/>
<path d="M280 770 c0 -5 5 -10 10 -10 6 0 10 5 10 10 0 6 -4 10 -10 10 -5 0
-10 -4 -10 -10z"/>
<path d="M3197 738 c12 -6 23 -18 26 -28 2 -9 14 -19 26 -23 24 -6 21 4 -12
41 -11 12 -30 22 -41 21 -21 0 -21 0 1 -11z"/>
<path d="M2980 720 c0 -5 5 -10 11 -10 5 0 7 5 4 10 -3 6 -8 10 -11 10 -2 0
-4 -4 -4 -10z"/>
<path d="M3080 706 c0 -2 8 -10 18 -17 15 -13 16 -12 3 4 -13 16 -21 21 -21
13z"/>
<path d="M3150 706 c0 -2 8 -10 18 -17 15 -13 16 -12 3 4 -13 16 -21 21 -21
13z"/>
<path d="M3275 649 c10 -10 22 -16 27 -13 12 8 -6 27 -28 30 -14 2 -14 0 1
-17z"/>
<path d="M3177 614 c6 -17 5 -17 -10 -5 -9 7 -17 9 -17 4 0 -5 16 -16 35 -25
32 -14 34 -14 25 2 -5 9 -16 23 -25 30 -13 11 -14 10 -8 -6z"/>
<path d="M360 611 c0 -5 5 -13 10 -16 6 -3 10 -2 10 4 0 5 -4 13 -10 16 -5 3
-10 2 -10 -4z"/>
<path d="M727 613 c-4 -3 -3 -11 2 -17 4 -6 11 -21 14 -34 4 -18 2 -22 -9 -18
-8 3 -14 2 -14 -3 0 -8 61 -22 68 -16 2 2 -7 18 -19 35 -18 24 -21 33 -10 39
10 6 9 10 -4 15 -20 7 -20 7 -28 -1z"/>
<path d="M3370 596 c0 -2 7 -9 15 -16 12 -10 15 -10 15 4 0 9 -7 16 -15 16 -8
0 -15 -2 -15 -4z"/>
<path d="M345 570 c4 -6 11 -8 16 -5 14 9 11 15 -7 15 -8 0 -12 -5 -9 -10z"/>
<path d="M447 559 c7 -7 15 -10 18 -7 3 3 -2 9 -12 12 -14 6 -15 5 -6 -5z"/>
<path d="M305 540 c3 -5 8 -10 11 -10 2 0 4 5 4 10 0 6 -5 10 -11 10 -5 0 -7
-4 -4 -10z"/>
<path d="M3290 546 c0 -2 7 -7 16 -10 8 -3 12 -2 9 4 -6 10 -25 14 -25 6z"/>
<path d="M846 517 c3 -10 9 -15 12 -12 3 3 0 11 -7 18 -10 9 -11 8 -5 -6z"/>
<path d="M3350 500 c14 -11 32 -19 40 -19 9 0 6 4 -6 9 -12 5 -25 13 -29 19
-3 6 -12 11 -18 11 -7 0 -1 -9 13 -20z"/>
<path d="M3385 510 c3 -5 8 -10 11 -10 2 0 4 5 4 10 0 6 -5 10 -11 10 -5 0 -7
-4 -4 -10z"/>
<path d="M1885 471 c-3 -5 -1 -12 5 -16 5 -3 10 1 10 9 0 18 -6 21 -15 7z"/>
<path d="M1851 433 c0 -5 9 -39 20 -78 l19 -70 -5 60 c-7 73 -13 95 -26 95 -5
0 -9 -3 -8 -7z"/>
<path d="M1151 408 c-1 -16 4 -28 9 -28 12 0 12 8 0 35 -8 18 -9 17 -9 -7z"/>
<path d="M1393 375 c-9 -10 -9 -16 -2 -20 14 -9 22 0 17 18 -2 13 -5 13 -15 2z"/>
<path d="M2666 319 c-11 -10 -14 -19 -8 -19 7 0 15 -1 19 -2 3 -2 8 7 9 20 5
26 4 26 -20 1z"/>
<path d="M3353 325 c-18 -8 -33 -11 -33 -8 0 3 -6 1 -13 -5 -7 -6 -40 -20 -73
-31 -32 -11 -84 -28 -115 -39 -30 -11 -75 -22 -99 -26 -45 -6 -75 -29 -82 -62
-2 -13 -16 -21 -47 -26 -24 -4 -54 -16 -65 -26 -27 -24 -45 -30 -136 -46 -42
-8 -91 -23 -110 -35 l-35 -21 205 2 c113 0 192 3 175 5 -16 3 -37 11 -48 18
-17 12 -17 14 -2 26 9 8 26 23 38 35 38 36 126 65 217 71 47 3 90 11 95 18 6
6 33 25 60 40 83 47 115 75 115 101 0 28 -3 28 -47 9z"/>
<path d="M125 320 c3 -5 8 -10 11 -10 2 0 4 5 4 10 0 6 -5 10 -11 10 -5 0 -7
-4 -4 -10z"/>
<path d="M1241 314 c0 -11 3 -14 6 -6 3 7 2 16 -1 19 -3 4 -6 -2 -5 -13z"/>
<path d="M1034 311 c4 -6 1 -11 -7 -11 -19 0 -31 -30 -17 -44 7 -7 10 -5 10 7
0 9 5 17 10 17 6 0 10 -7 10 -15 0 -18 12 -19 28 -3 16 16 15 28 -3 28 -8 0
-14 5 -12 11 1 6 -4 14 -12 17 -8 3 -11 0 -7 -7z"/>
<path d="M1103 293 c9 -2 25 -2 35 0 9 3 1 5 -18 5 -19 0 -27 -2 -17 -5z"/>
<path d="M512 264 c-10 -11 -10 -14 0 -14 7 0 14 -13 15 -30 1 -17 -2 -30 -7
-30 -4 0 -15 -3 -24 -6 -11 -4 -16 0 -17 12 0 16 -2 16 -11 -4 -14 -29 6 -73
31 -65 12 3 13 2 3 -4 -8 -6 -11 -23 -8 -46 7 -53 23 -77 50 -77 24 0 28 13
13 38 -5 7 -3 12 7 12 12 0 14 5 6 26 -6 14 -10 44 -10 67 -1 23 -7 53 -15 67
-10 19 -11 28 -2 39 9 11 9 13 0 8 -6 -4 -13 -1 -15 7 -3 12 -5 12 -16 0z m5
-99 c0 -9 -9 -15 -21 -15 -21 1 -21 1 -2 15 24 18 23 18 23 0z"/>
<path d="M2140 239 c0 -5 5 -7 10 -4 6 3 10 8 10 11 0 2 -4 4 -10 4 -5 0 -10
-5 -10 -11z"/>
<path d="M5 157 c-7 -27 -3 -67 9 -86 7 -11 10 -11 17 0 14 22 10 51 -8 71 -9
11 -11 18 -5 18 7 0 12 5 12 10 0 20 -20 10 -25 -13z"/>
<path d="M756 168 c5 -7 2 -9 -7 -6 -8 3 -23 2 -34 -3 -18 -7 -17 -8 7 -8 34
-1 59 9 52 20 -3 5 -10 9 -15 9 -6 0 -7 -5 -3 -12z"/>
<path d="M3230 166 c0 -2 7 -7 16 -10 8 -3 12 -2 9 4 -6 10 -25 14 -25 6z"/>
<path d="M1503 133 c-28 -5 -30 -23 -4 -23 11 0 26 -3 35 -6 9 -3 16 -1 16 5
0 6 -8 11 -17 12 -15 0 -15 2 2 9 21 9 6 10 -32 3z"/>
<path d="M441 123 c-1 -7 -8 -10 -16 -7 -9 4 -15 0 -15 -10 0 -18 8 -20 29 -7
7 5 11 15 8 22 -4 9 -6 10 -6 2z"/>
<path d="M2370 111 c0 -5 5 -13 10 -16 6 -3 10 -2 10 4 0 5 -4 13 -10 16 -5 3
-10 2 -10 -4z"/>
<path d="M1088 83 c-21 -2 -38 -8 -38 -14 0 -5 -11 -9 -24 -9 -29 0 -56 -28
-38 -39 7 -4 47 -3 89 1 49 5 79 5 81 -1 2 -6 10 -7 18 -4 8 3 14 0 14 -6 0
-15 25 -14 50 1 16 10 24 10 40 0 11 -6 41 -12 66 -12 40 0 45 2 34 15 -7 8
-28 15 -48 15 -19 0 -43 7 -52 15 -10 9 -33 17 -51 19 -31 4 -48 7 -89 18 -8
3 -32 3 -52 1z"/>
<path d="M3293 73 c3 -13 1 -23 -4 -23 -15 0 -10 -22 9 -36 20 -16 102 -19
102 -4 0 6 -11 10 -24 10 -15 0 -35 13 -56 38 -25 30 -31 33 -27 15z"/>
<path d="M2395 70 c-3 -5 -1 -10 4 -10 6 0 11 5 11 10 0 6 -2 10 -4 10 -3 0
-8 -4 -11 -10z"/>
<path d="M3158 63 c-10 -2 -18 -9 -18 -14 0 -11 40 -12 58 0 11 7 10 10 -3 15
-9 3 -17 5 -18 5 -1 -1 -10 -3 -19 -6z"/>
<path d="M27 29 c4 -16 8 -17 14 -7 13 19 11 28 -5 28 -9 0 -12 -7 -9 -21z"/>
<path d="M392 25 c0 -17 2 -22 5 -12 2 9 2 23 0 30 -3 6 -5 -1 -5 -18z"/>
</g>
</svg>
